<svg id="Layer_1" data-name="Layer 1" xmlns="http://www.w3.org/2000/svg" viewBox="0 0 302 346.1"><defs><style>.cls-1{opacity:0.1;}.cls-2{fill:#295271;}</style></defs><g class="cls-1"><path class="cls-2" d="M501,79.2v1.5h-2v2.2h-1.3V80.7h-2V79.2h2V77H499v2.2Z" transform="translate(-199 -77)"/><path class="cls-2" d="M501,97.1v1.5h-2v2.2h-1.3V98.6h-2V97.1h2V94.9H499v2.2Z" transform="translate(-199 -77)"/><path class="cls-2" d="M501,115v1.5h-2v2.2h-1.3v-2.2h-2V115h2v-2.2H499V115Z" transform="translate(-199 -77)"/><path class="cls-2" d="M501,132.9v1.5h-2v2.2h-1.3v-2.2h-2v-1.5h2v-2.2H499v2.2Z" transform="translate(-199 -77)"/><path class="cls-2" d="M501,150.8v1.5h-2v2.2h-1.3v-2.2h-2v-1.5h2v-2.2H499v2.2Z" transform="translate(-199 -77)"/><path class="cls-2" d="M501,168.7v1.5h-2v2.2h-1.3v-2.2h-2v-1.5h2v-2.2H499v2.2Z" transform="translate(-199 -77)"/><path class="cls-2" d="M501,186.6v1.5h-2v2.2h-1.3v-2.2h-2v-1.5h2v-2.2H499v2.2Z" transform="translate(-199 -77)"/><path class="cls-2" d="M501,204.5V206h-2v2.2h-1.3V206h-2v-1.5h2v-2.2H499v2.2Z" transform="translate(-199 -77)"/><path class="cls-2" d="M501,222.4v1.5h-2v2.2h-1.3v-2.2h-2v-1.5h2v-2.2H499v2.2Z" transform="translate(-199 -77)"/><path class="cls-2" d="M501,240.3v1.5h-2V244h-1.3v-2.2h-2v-1.5h2v-2.2H499v2.2Z" transform="translate(-199 -77)"/><path class="cls-2" d="M501,258.2v1.5h-2v2.2h-1.3v-2.2h-2v-1.5h2V256H499v2.2Z" transform="translate(-199 -77)"/><path class="cls-2" d="M501,276.1v1.5h-2v2.2h-1.3v-2.2h-2v-1.5h2v-2.2H499v2.2Z" transform="translate(-199 -77)"/><path class="cls-2" d="M501,294v1.5h-2v2.2h-1.3v-2.2h-2V294h2v-2.2H499V294Z" transform="translate(-199 -77)"/><path class="cls-2" d="M501,311.9v1.5h-2v2.2h-1.3v-2.2h-2v-1.5h2v-2.2H499v2.2Z" transform="translate(-199 -77)"/><path class="cls-2" d="M501,329.8v1.5h-2v2.2h-1.3v-2.2h-2v-1.5h2v-2.2H499v2.2Z" transform="translate(-199 -77)"/><path class="cls-2" d="M501,347.7v1.5h-2v2.2h-1.3v-2.2h-2v-1.5h2v-2.2H499v2.2Z" transform="translate(-199 -77)"/><path class="cls-2" d="M501,365.6v1.5h-2v2.2h-1.3v-2.2h-2v-1.5h2v-2.2H499v2.2Z" transform="translate(-199 -77)"/><path class="cls-2" d="M501,383.5V385h-2v2.2h-1.3V385h-2v-1.5h2v-2.2H499v2.2Z" transform="translate(-199 -77)"/><path class="cls-2" d="M501,401.5V403h-2v2.2h-1.3V403h-2v-1.5h2v-2.2H499v2.2Z" transform="translate(-199 -77)"/><path class="cls-2" d="M501,419.4v1.5h-2v2.2h-1.3v-2.2h-2v-1.5h2v-2.2H499v2.2Z" transform="translate(-199 -77)"/><path class="cls-2" d="M485.4,79.2v1.5h-2v2.2h-1.3V80.7h-2V79.2h2V77h1.3v2.2Z" transform="translate(-199 -77)"/><path class="cls-2" d="M485.4,97.1v1.5h-2v2.2h-1.3V98.6h-2V97.1h2V94.9h1.3v2.2Z" transform="translate(-199 -77)"/><path class="cls-2" d="M485.4,115v1.5h-2v2.2h-1.3v-2.2h-2V115h2v-2.2h1.3V115Z" transform="translate(-199 -77)"/><path class="cls-2" d="M485.4,132.9v1.5h-2v2.2h-1.3v-2.2h-2v-1.5h2v-2.2h1.3v2.2Z" transform="translate(-199 -77)"/><path class="cls-2" d="M485.4,150.8v1.5h-2v2.2h-1.3v-2.2h-2v-1.5h2v-2.2h1.3v2.2Z" transform="translate(-199 -77)"/><path class="cls-2" d="M485.4,168.7v1.5h-2v2.2h-1.3v-2.2h-2v-1.5h2v-2.2h1.3v2.2Z" transform="translate(-199 -77)"/><path class="cls-2" d="M485.4,186.6v1.5h-2v2.2h-1.3v-2.2h-2v-1.5h2v-2.2h1.3v2.2Z" transform="translate(-199 -77)"/><path class="cls-2" d="M485.4,204.5V206h-2v2.2h-1.3V206h-2v-1.5h2v-2.2h1.3v2.2Z" transform="translate(-199 -77)"/><path class="cls-2" d="M485.4,222.4v1.5h-2v2.2h-1.3v-2.2h-2v-1.5h2v-2.2h1.3v2.2Z" transform="translate(-199 -77)"/><path class="cls-2" d="M485.4,240.3v1.5h-2V244h-1.3v-2.2h-2v-1.5h2v-2.2h1.3v2.2Z" transform="translate(-199 -77)"/><path class="cls-2" d="M485.4,258.2v1.5h-2v2.2h-1.3v-2.2h-2v-1.5h2V256h1.3v2.2Z" transform="translate(-199 -77)"/><path class="cls-2" d="M485.4,276.1v1.5h-2v2.2h-1.3v-2.2h-2v-1.5h2v-2.2h1.3v2.2Z" transform="translate(-199 -77)"/><path class="cls-2" d="M485.4,294v1.5h-2v2.2h-1.3v-2.2h-2V294h2v-2.2h1.3V294Z" transform="translate(-199 -77)"/><path class="cls-2" d="M485.4,311.9v1.5h-2v2.2h-1.3v-2.2h-2v-1.5h2v-2.2h1.3v2.2Z" transform="translate(-199 -77)"/><path class="cls-2" d="M485.4,329.8v1.5h-2v2.2h-1.3v-2.2h-2v-1.5h2v-2.2h1.3v2.2Z" transform="translate(-199 -77)"/><path class="cls-2" d="M485.4,347.7v1.5h-2v2.2h-1.3v-2.2h-2v-1.5h2v-2.2h1.3v2.2Z" transform="translate(-199 -77)"/><path class="cls-2" d="M485.4,365.6v1.5h-2v2.2h-1.3v-2.2h-2v-1.5h2v-2.2h1.3v2.2Z" transform="translate(-199 -77)"/><path class="cls-2" d="M485.4,383.5V385h-2v2.2h-1.3V385h-2v-1.5h2v-2.2h1.3v2.2Z" transform="translate(-199 -77)"/><path class="cls-2" d="M485.4,401.5V403h-2v2.2h-1.3V403h-2v-1.5h2v-2.2h1.3v2.2Z" transform="translate(-199 -77)"/><path class="cls-2" d="M485.4,419.4v1.5h-2v2.2h-1.3v-2.2h-2v-1.5h2v-2.2h1.3v2.2Z" transform="translate(-199 -77)"/><path class="cls-2" d="M469.8,79.2v1.5h-2v2.2h-1.3V80.7h-2V79.2h2V77h1.3v2.2Z" transform="translate(-199 -77)"/><path class="cls-2" d="M469.8,97.1v1.5h-2v2.2h-1.3V98.6h-2V97.1h2V94.9h1.3v2.2Z" transform="translate(-199 -77)"/><path class="cls-2" d="M469.8,115v1.5h-2v2.2h-1.3v-2.2h-2V115h2v-2.2h1.3V115Z" transform="translate(-199 -77)"/><path class="cls-2" d="M469.8,132.9v1.5h-2v2.2h-1.3v-2.2h-2v-1.5h2v-2.2h1.3v2.2Z" transform="translate(-199 -77)"/><path class="cls-2" d="M469.8,150.8v1.5h-2v2.2h-1.3v-2.2h-2v-1.5h2v-2.2h1.3v2.2Z" transform="translate(-199 -77)"/><path class="cls-2" d="M469.8,168.7v1.5h-2v2.2h-1.3v-2.2h-2v-1.5h2v-2.2h1.3v2.2Z" transform="translate(-199 -77)"/><path class="cls-2" d="M469.8,186.6v1.5h-2v2.2h-1.3v-2.2h-2v-1.5h2v-2.2h1.3v2.2Z" transform="translate(-199 -77)"/><path class="cls-2" d="M469.8,204.5V206h-2v2.2h-1.3V206h-2v-1.5h2v-2.2h1.3v2.2Z" transform="translate(-199 -77)"/><path class="cls-2" d="M469.8,222.4v1.5h-2v2.2h-1.3v-2.2h-2v-1.5h2v-2.2h1.3v2.2Z" transform="translate(-199 -77)"/><path class="cls-2" d="M469.8,240.3v1.5h-2V244h-1.3v-2.2h-2v-1.5h2v-2.2h1.3v2.2Z" transform="translate(-199 -77)"/><path class="cls-2" d="M469.8,258.2v1.5h-2v2.2h-1.3v-2.2h-2v-1.5h2V256h1.3v2.2Z" transform="translate(-199 -77)"/><path class="cls-2" d="M469.8,276.1v1.5h-2v2.2h-1.3v-2.2h-2v-1.5h2v-2.2h1.3v2.2Z" transform="translate(-199 -77)"/><path class="cls-2" d="M469.8,294v1.5h-2v2.2h-1.3v-2.2h-2V294h2v-2.2h1.3V294Z" transform="translate(-199 -77)"/><path class="cls-2" d="M469.8,311.9v1.5h-2v2.2h-1.3v-2.2h-2v-1.5h2v-2.2h1.3v2.2Z" transform="translate(-199 -77)"/><path class="cls-2" d="M469.8,329.8v1.5h-2v2.2h-1.3v-2.2h-2v-1.5h2v-2.2h1.3v2.2Z" transform="translate(-199 -77)"/><path class="cls-2" d="M469.8,347.7v1.5h-2v2.2h-1.3v-2.2h-2v-1.5h2v-2.2h1.3v2.2Z" transform="translate(-199 -77)"/><path class="cls-2" d="M469.8,365.6v1.5h-2v2.2h-1.3v-2.2h-2v-1.5h2v-2.2h1.3v2.2Z" transform="translate(-199 -77)"/><path class="cls-2" d="M469.8,383.5V385h-2v2.2h-1.3V385h-2v-1.5h2v-2.2h1.3v2.2Z" transform="translate(-199 -77)"/><path class="cls-2" d="M469.8,401.5V403h-2v2.2h-1.3V403h-2v-1.5h2v-2.2h1.3v2.2Z" transform="translate(-199 -77)"/><path class="cls-2" d="M469.8,419.4v1.5h-2v2.2h-1.3v-2.2h-2v-1.5h2v-2.2h1.3v2.2Z" transform="translate(-199 -77)"/><path class="cls-2" d="M454.1,79.2v1.5h-2v2.2h-1.3V80.7h-2V79.2h2V77h1.3v2.2Z" transform="translate(-199 -77)"/><path class="cls-2" d="M454.1,97.1v1.5h-2v2.2h-1.3V98.6h-2V97.1h2V94.9h1.3v2.2Z" transform="translate(-199 -77)"/><path class="cls-2" d="M454.1,115v1.5h-2v2.2h-1.3v-2.2h-2V115h2v-2.2h1.3V115Z" transform="translate(-199 -77)"/><path class="cls-2" d="M454.1,132.9v1.5h-2v2.2h-1.3v-2.2h-2v-1.5h2v-2.2h1.3v2.2Z" transform="translate(-199 -77)"/><path class="cls-2" d="M454.1,150.8v1.5h-2v2.2h-1.3v-2.2h-2v-1.5h2v-2.2h1.3v2.2Z" transform="translate(-199 -77)"/><path class="cls-2" d="M454.1,168.7v1.5h-2v2.2h-1.3v-2.2h-2v-1.5h2v-2.2h1.3v2.2Z" transform="translate(-199 -77)"/><path class="cls-2" d="M454.1,186.6v1.5h-2v2.2h-1.3v-2.2h-2v-1.5h2v-2.2h1.3v2.2Z" transform="translate(-199 -77)"/><path class="cls-2" d="M454.1,204.5V206h-2v2.2h-1.3V206h-2v-1.5h2v-2.2h1.3v2.2Z" transform="translate(-199 -77)"/><path class="cls-2" d="M454.1,222.4v1.5h-2v2.2h-1.3v-2.2h-2v-1.5h2v-2.2h1.3v2.2Z" transform="translate(-199 -77)"/><path class="cls-2" d="M454.1,240.3v1.5h-2V244h-1.3v-2.2h-2v-1.5h2v-2.2h1.3v2.2Z" transform="translate(-199 -77)"/><path class="cls-2" d="M454.1,258.2v1.5h-2v2.2h-1.3v-2.2h-2v-1.5h2V256h1.3v2.2Z" transform="translate(-199 -77)"/><path class="cls-2" d="M454.1,276.1v1.5h-2v2.2h-1.3v-2.2h-2v-1.5h2v-2.2h1.3v2.2Z" transform="translate(-199 -77)"/><path class="cls-2" d="M454.1,294v1.5h-2v2.2h-1.3v-2.2h-2V294h2v-2.2h1.3V294Z" transform="translate(-199 -77)"/><path class="cls-2" d="M454.1,311.9v1.5h-2v2.2h-1.3v-2.2h-2v-1.5h2v-2.2h1.3v2.2Z" transform="translate(-199 -77)"/><path class="cls-2" d="M454.1,329.8v1.5h-2v2.2h-1.3v-2.2h-2v-1.5h2v-2.2h1.3v2.2Z" transform="translate(-199 -77)"/><path class="cls-2" d="M454.1,347.7v1.5h-2v2.2h-1.3v-2.2h-2v-1.5h2v-2.2h1.3v2.2Z" transform="translate(-199 -77)"/><path class="cls-2" d="M454.1,365.6v1.5h-2v2.2h-1.3v-2.2h-2v-1.5h2v-2.2h1.3v2.2Z" transform="translate(-199 -77)"/><path class="cls-2" d="M454.1,383.5V385h-2v2.2h-1.3V385h-2v-1.5h2v-2.2h1.3v2.2Z" transform="translate(-199 -77)"/><path class="cls-2" d="M454.1,401.5V403h-2v2.2h-1.3V403h-2v-1.5h2v-2.2h1.3v2.2Z" transform="translate(-199 -77)"/><path class="cls-2" d="M454.1,419.4v1.5h-2v2.2h-1.3v-2.2h-2v-1.5h2v-2.2h1.3v2.2Z" transform="translate(-199 -77)"/><path class="cls-2" d="M438.5,79.2v1.5h-2v2.2h-1.3V80.7h-2V79.2h2V77h1.3v2.2Z" transform="translate(-199 -77)"/><path class="cls-2" d="M438.5,97.1v1.5h-2v2.2h-1.3V98.6h-2V97.1h2V94.9h1.3v2.2Z" transform="translate(-199 -77)"/><path class="cls-2" d="M438.5,115v1.5h-2v2.2h-1.3v-2.2h-2V115h2v-2.2h1.3V115Z" transform="translate(-199 -77)"/><path class="cls-2" d="M438.5,132.9v1.5h-2v2.2h-1.3v-2.2h-2v-1.5h2v-2.2h1.3v2.2Z" transform="translate(-199 -77)"/><path class="cls-2" d="M438.5,150.8v1.5h-2v2.2h-1.3v-2.2h-2v-1.5h2v-2.2h1.3v2.2Z" transform="translate(-199 -77)"/><path class="cls-2" d="M438.5,168.7v1.5h-2v2.2h-1.3v-2.2h-2v-1.5h2v-2.2h1.3v2.2Z" transform="translate(-199 -77)"/><path class="cls-2" d="M438.5,186.6v1.5h-2v2.2h-1.3v-2.2h-2v-1.5h2v-2.2h1.3v2.2Z" transform="translate(-199 -77)"/><path class="cls-2" d="M438.5,204.5V206h-2v2.2h-1.3V206h-2v-1.5h2v-2.2h1.3v2.2Z" transform="translate(-199 -77)"/><path class="cls-2" d="M438.5,222.4v1.5h-2v2.2h-1.3v-2.2h-2v-1.5h2v-2.2h1.3v2.2Z" transform="translate(-199 -77)"/><path class="cls-2" d="M438.5,240.3v1.5h-2V244h-1.3v-2.2h-2v-1.5h2v-2.2h1.3v2.2Z" transform="translate(-199 -77)"/><path class="cls-2" d="M438.5,258.2v1.5h-2v2.2h-1.3v-2.2h-2v-1.5h2V256h1.3v2.2Z" transform="translate(-199 -77)"/><path class="cls-2" d="M438.5,276.1v1.5h-2v2.2h-1.3v-2.2h-2v-1.5h2v-2.2h1.3v2.2Z" transform="translate(-199 -77)"/><path class="cls-2" d="M438.5,294v1.5h-2v2.2h-1.3v-2.2h-2V294h2v-2.2h1.3V294Z" transform="translate(-199 -77)"/><path class="cls-2" d="M438.5,311.9v1.5h-2v2.2h-1.3v-2.2h-2v-1.5h2v-2.2h1.3v2.2Z" transform="translate(-199 -77)"/><path class="cls-2" d="M438.5,329.8v1.5h-2v2.2h-1.3v-2.2h-2v-1.5h2v-2.2h1.3v2.2Z" transform="translate(-199 -77)"/><path class="cls-2" d="M438.5,347.7v1.5h-2v2.2h-1.3v-2.2h-2v-1.5h2v-2.2h1.3v2.2Z" transform="translate(-199 -77)"/><path class="cls-2" d="M438.5,365.6v1.5h-2v2.2h-1.3v-2.2h-2v-1.5h2v-2.2h1.3v2.2Z" transform="translate(-199 -77)"/><path class="cls-2" d="M438.5,383.5V385h-2v2.2h-1.3V385h-2v-1.5h2v-2.2h1.3v2.2Z" transform="translate(-199 -77)"/><path class="cls-2" d="M438.5,401.5V403h-2v2.2h-1.3V403h-2v-1.5h2v-2.2h1.3v2.2Z" transform="translate(-199 -77)"/><path class="cls-2" d="M438.5,419.4v1.5h-2v2.2h-1.3v-2.2h-2v-1.5h2v-2.2h1.3v2.2Z" transform="translate(-199 -77)"/><path class="cls-2" d="M422.9,79.2v1.5h-2v2.2h-1.3V80.7h-2V79.2h2V77h1.3v2.2Z" transform="translate(-199 -77)"/><path class="cls-2" d="M422.9,97.1v1.5h-2v2.2h-1.3V98.6h-2V97.1h2V94.9h1.3v2.2Z" transform="translate(-199 -77)"/><path class="cls-2" d="M422.9,115v1.5h-2v2.2h-1.3v-2.2h-2V115h2v-2.2h1.3V115Z" transform="translate(-199 -77)"/><path class="cls-2" d="M422.9,132.9v1.5h-2v2.2h-1.3v-2.2h-2v-1.5h2v-2.2h1.3v2.2Z" transform="translate(-199 -77)"/><path class="cls-2" d="M422.9,150.8v1.5h-2v2.2h-1.3v-2.2h-2v-1.5h2v-2.2h1.3v2.2Z" transform="translate(-199 -77)"/><path class="cls-2" d="M422.9,168.7v1.5h-2v2.2h-1.3v-2.2h-2v-1.5h2v-2.2h1.3v2.2Z" transform="translate(-199 -77)"/><path class="cls-2" d="M422.9,186.6v1.5h-2v2.2h-1.3v-2.2h-2v-1.5h2v-2.2h1.3v2.2Z" transform="translate(-199 -77)"/><path class="cls-2" d="M422.9,204.5V206h-2v2.2h-1.3V206h-2v-1.5h2v-2.2h1.3v2.2Z" transform="translate(-199 -77)"/><path class="cls-2" d="M422.9,222.4v1.5h-2v2.2h-1.3v-2.2h-2v-1.5h2v-2.2h1.3v2.2Z" transform="translate(-199 -77)"/><path class="cls-2" d="M422.9,240.3v1.5h-2V244h-1.3v-2.2h-2v-1.5h2v-2.2h1.3v2.2Z" transform="translate(-199 -77)"/><path class="cls-2" d="M422.9,258.2v1.5h-2v2.2h-1.3v-2.2h-2v-1.5h2V256h1.3v2.2Z" transform="translate(-199 -77)"/><path class="cls-2" d="M422.9,276.1v1.5h-2v2.2h-1.3v-2.2h-2v-1.5h2v-2.2h1.3v2.2Z" transform="translate(-199 -77)"/><path class="cls-2" d="M422.9,294v1.5h-2v2.2h-1.3v-2.2h-2V294h2v-2.2h1.3V294Z" transform="translate(-199 -77)"/><path class="cls-2" d="M422.9,311.9v1.5h-2v2.2h-1.3v-2.2h-2v-1.5h2v-2.2h1.3v2.2Z" transform="translate(-199 -77)"/><path class="cls-2" d="M422.9,329.8v1.5h-2v2.2h-1.3v-2.2h-2v-1.5h2v-2.2h1.3v2.2Z" transform="translate(-199 -77)"/><path class="cls-2" d="M422.9,347.7v1.5h-2v2.2h-1.3v-2.2h-2v-1.5h2v-2.2h1.3v2.2Z" transform="translate(-199 -77)"/><path class="cls-2" d="M422.9,365.6v1.5h-2v2.2h-1.3v-2.2h-2v-1.5h2v-2.2h1.3v2.2Z" transform="translate(-199 -77)"/><path class="cls-2" d="M422.9,383.5V385h-2v2.2h-1.3V385h-2v-1.5h2v-2.2h1.3v2.2Z" transform="translate(-199 -77)"/><path class="cls-2" d="M422.9,401.5V403h-2v2.2h-1.3V403h-2v-1.5h2v-2.2h1.3v2.2Z" transform="translate(-199 -77)"/><path class="cls-2" d="M422.9,419.4v1.5h-2v2.2h-1.3v-2.2h-2v-1.5h2v-2.2h1.3v2.2Z" transform="translate(-199 -77)"/><path class="cls-2" d="M407.3,79.2v1.5h-2v2.2H404V80.7h-2V79.2h2V77h1.3v2.2Z" transform="translate(-199 -77)"/><path class="cls-2" d="M407.3,97.1v1.5h-2v2.2H404V98.6h-2V97.1h2V94.9h1.3v2.2Z" transform="translate(-199 -77)"/><path class="cls-2" d="M407.3,115v1.5h-2v2.2H404v-2.2h-2V115h2v-2.2h1.3V115Z" transform="translate(-199 -77)"/><path class="cls-2" d="M407.3,132.9v1.5h-2v2.2H404v-2.2h-2v-1.5h2v-2.2h1.3v2.2Z" transform="translate(-199 -77)"/><path class="cls-2" d="M407.3,150.8v1.5h-2v2.2H404v-2.2h-2v-1.5h2v-2.2h1.3v2.2Z" transform="translate(-199 -77)"/><path class="cls-2" d="M407.3,168.7v1.5h-2v2.2H404v-2.2h-2v-1.5h2v-2.2h1.3v2.2Z" transform="translate(-199 -77)"/><path class="cls-2" d="M407.3,186.6v1.5h-2v2.2H404v-2.2h-2v-1.5h2v-2.2h1.3v2.2Z" transform="translate(-199 -77)"/><path class="cls-2" d="M407.3,204.5V206h-2v2.2H404V206h-2v-1.5h2v-2.2h1.3v2.2Z" transform="translate(-199 -77)"/><path class="cls-2" d="M407.3,222.4v1.5h-2v2.2H404v-2.2h-2v-1.5h2v-2.2h1.3v2.2Z" transform="translate(-199 -77)"/><path class="cls-2" d="M407.3,240.3v1.5h-2V244H404v-2.2h-2v-1.5h2v-2.2h1.3v2.2Z" transform="translate(-199 -77)"/><path class="cls-2" d="M407.3,258.2v1.5h-2v2.2H404v-2.2h-2v-1.5h2V256h1.3v2.2Z" transform="translate(-199 -77)"/><path class="cls-2" d="M407.3,276.1v1.5h-2v2.2H404v-2.2h-2v-1.5h2v-2.2h1.3v2.2Z" transform="translate(-199 -77)"/><path class="cls-2" d="M407.3,294v1.5h-2v2.2H404v-2.2h-2V294h2v-2.2h1.3V294Z" transform="translate(-199 -77)"/><path class="cls-2" d="M407.3,311.9v1.5h-2v2.2H404v-2.2h-2v-1.5h2v-2.2h1.3v2.2Z" transform="translate(-199 -77)"/><path class="cls-2" d="M407.3,329.8v1.5h-2v2.2H404v-2.2h-2v-1.5h2v-2.2h1.3v2.2Z" transform="translate(-199 -77)"/><path class="cls-2" d="M407.3,347.7v1.5h-2v2.2H404v-2.2h-2v-1.5h2v-2.2h1.3v2.2Z" transform="translate(-199 -77)"/><path class="cls-2" d="M407.3,365.6v1.5h-2v2.2H404v-2.2h-2v-1.5h2v-2.2h1.3v2.2Z" transform="translate(-199 -77)"/><path class="cls-2" d="M407.3,383.5V385h-2v2.2H404V385h-2v-1.5h2v-2.2h1.3v2.2Z" transform="translate(-199 -77)"/><path class="cls-2" d="M407.3,401.5V403h-2v2.2H404V403h-2v-1.5h2v-2.2h1.3v2.2Z" transform="translate(-199 -77)"/><path class="cls-2" d="M407.3,419.4v1.5h-2v2.2H404v-2.2h-2v-1.5h2v-2.2h1.3v2.2Z" transform="translate(-199 -77)"/><path class="cls-2" d="M391.7,79.2v1.5h-2v2.2h-1.3V80.7h-2V79.2h2V77h1.3v2.2Z" transform="translate(-199 -77)"/><path class="cls-2" d="M391.7,97.1v1.5h-2v2.2h-1.3V98.6h-2V97.1h2V94.9h1.3v2.2Z" transform="translate(-199 -77)"/><path class="cls-2" d="M391.7,115v1.5h-2v2.2h-1.3v-2.2h-2V115h2v-2.2h1.3V115Z" transform="translate(-199 -77)"/><path class="cls-2" d="M391.7,132.9v1.5h-2v2.2h-1.3v-2.2h-2v-1.5h2v-2.2h1.3v2.2Z" transform="translate(-199 -77)"/><path class="cls-2" d="M391.7,150.8v1.5h-2v2.2h-1.3v-2.2h-2v-1.5h2v-2.2h1.3v2.2Z" transform="translate(-199 -77)"/><path class="cls-2" d="M391.7,168.7v1.5h-2v2.2h-1.3v-2.2h-2v-1.5h2v-2.2h1.3v2.2Z" transform="translate(-199 -77)"/><path class="cls-2" d="M391.7,186.6v1.5h-2v2.2h-1.3v-2.2h-2v-1.5h2v-2.2h1.3v2.2Z" transform="translate(-199 -77)"/><path class="cls-2" d="M391.7,204.5V206h-2v2.2h-1.3V206h-2v-1.5h2v-2.2h1.3v2.2Z" transform="translate(-199 -77)"/><path class="cls-2" d="M391.7,222.4v1.5h-2v2.2h-1.3v-2.2h-2v-1.5h2v-2.2h1.3v2.2Z" transform="translate(-199 -77)"/><path class="cls-2" d="M391.7,240.3v1.5h-2V244h-1.3v-2.2h-2v-1.5h2v-2.2h1.3v2.2Z" transform="translate(-199 -77)"/><path class="cls-2" d="M391.7,258.2v1.5h-2v2.2h-1.3v-2.2h-2v-1.5h2V256h1.3v2.2Z" transform="translate(-199 -77)"/><path class="cls-2" d="M391.7,276.1v1.5h-2v2.2h-1.3v-2.2h-2v-1.5h2v-2.2h1.3v2.2Z" transform="translate(-199 -77)"/><path class="cls-2" d="M391.7,294v1.5h-2v2.2h-1.3v-2.2h-2V294h2v-2.2h1.3V294Z" transform="translate(-199 -77)"/><path class="cls-2" d="M391.7,311.9v1.5h-2v2.2h-1.3v-2.2h-2v-1.5h2v-2.2h1.3v2.2Z" transform="translate(-199 -77)"/><path class="cls-2" d="M391.7,329.8v1.5h-2v2.2h-1.3v-2.2h-2v-1.5h2v-2.2h1.3v2.2Z" transform="translate(-199 -77)"/><path class="cls-2" d="M391.7,347.7v1.5h-2v2.2h-1.3v-2.2h-2v-1.5h2v-2.2h1.3v2.2Z" transform="translate(-199 -77)"/><path class="cls-2" d="M391.7,365.6v1.5h-2v2.2h-1.3v-2.2h-2v-1.5h2v-2.2h1.3v2.2Z" transform="translate(-199 -77)"/><path class="cls-2" d="M391.7,383.5V385h-2v2.2h-1.3V385h-2v-1.5h2v-2.2h1.3v2.2Z" transform="translate(-199 -77)"/><path class="cls-2" d="M391.7,401.5V403h-2v2.2h-1.3V403h-2v-1.5h2v-2.2h1.3v2.2Z" transform="translate(-199 -77)"/><path class="cls-2" d="M391.7,419.4v1.5h-2v2.2h-1.3v-2.2h-2v-1.5h2v-2.2h1.3v2.2Z" transform="translate(-199 -77)"/><path class="cls-2" d="M376,79.2v1.5h-2v2.2h-1.3V80.7h-2V79.2h2V77H374v2.2Z" transform="translate(-199 -77)"/><path class="cls-2" d="M376,97.1v1.5h-2v2.2h-1.3V98.6h-2V97.1h2V94.9H374v2.2Z" transform="translate(-199 -77)"/><path class="cls-2" d="M376,115v1.5h-2v2.2h-1.3v-2.2h-2V115h2v-2.2H374V115Z" transform="translate(-199 -77)"/><path class="cls-2" d="M376,132.9v1.5h-2v2.2h-1.3v-2.2h-2v-1.5h2v-2.2H374v2.2Z" transform="translate(-199 -77)"/><path class="cls-2" d="M376,150.8v1.5h-2v2.2h-1.3v-2.2h-2v-1.5h2v-2.2H374v2.2Z" transform="translate(-199 -77)"/><path class="cls-2" d="M376,168.7v1.5h-2v2.2h-1.3v-2.2h-2v-1.5h2v-2.2H374v2.2Z" transform="translate(-199 -77)"/><path class="cls-2" d="M376,186.6v1.5h-2v2.2h-1.3v-2.2h-2v-1.5h2v-2.2H374v2.2Z" transform="translate(-199 -77)"/><path class="cls-2" d="M376,204.5V206h-2v2.2h-1.3V206h-2v-1.5h2v-2.2H374v2.2Z" transform="translate(-199 -77)"/><path class="cls-2" d="M376,222.4v1.5h-2v2.2h-1.3v-2.2h-2v-1.5h2v-2.2H374v2.2Z" transform="translate(-199 -77)"/><path class="cls-2" d="M376,240.3v1.5h-2V244h-1.3v-2.2h-2v-1.5h2v-2.2H374v2.2Z" transform="translate(-199 -77)"/><path class="cls-2" d="M376,258.2v1.5h-2v2.2h-1.3v-2.2h-2v-1.5h2V256H374v2.2Z" transform="translate(-199 -77)"/><path class="cls-2" d="M376,276.1v1.5h-2v2.2h-1.3v-2.2h-2v-1.5h2v-2.2H374v2.2Z" transform="translate(-199 -77)"/><path class="cls-2" d="M376,294v1.5h-2v2.2h-1.3v-2.2h-2V294h2v-2.2H374V294Z" transform="translate(-199 -77)"/><path class="cls-2" d="M376,311.9v1.5h-2v2.2h-1.3v-2.2h-2v-1.5h2v-2.2H374v2.2Z" transform="translate(-199 -77)"/><path class="cls-2" d="M376,329.8v1.5h-2v2.2h-1.3v-2.2h-2v-1.5h2v-2.2H374v2.2Z" transform="translate(-199 -77)"/><path class="cls-2" d="M376,347.7v1.5h-2v2.2h-1.3v-2.2h-2v-1.5h2v-2.2H374v2.2Z" transform="translate(-199 -77)"/><path class="cls-2" d="M376,365.6v1.5h-2v2.2h-1.3v-2.2h-2v-1.5h2v-2.2H374v2.2Z" transform="translate(-199 -77)"/><path class="cls-2" d="M376,383.5V385h-2v2.2h-1.3V385h-2v-1.5h2v-2.2H374v2.2Z" transform="translate(-199 -77)"/><path class="cls-2" d="M376,401.5V403h-2v2.2h-1.3V403h-2v-1.5h2v-2.2H374v2.2Z" transform="translate(-199 -77)"/><path class="cls-2" d="M376,419.4v1.5h-2v2.2h-1.3v-2.2h-2v-1.5h2v-2.2H374v2.2Z" transform="translate(-199 -77)"/><path class="cls-2" d="M360.4,79.2v1.5h-2v2.2h-1.3V80.7h-2V79.2h2V77h1.3v2.2Z" transform="translate(-199 -77)"/><path class="cls-2" d="M360.4,97.1v1.5h-2v2.2h-1.3V98.6h-2V97.1h2V94.9h1.3v2.2Z" transform="translate(-199 -77)"/><path class="cls-2" d="M360.4,115v1.5h-2v2.2h-1.3v-2.2h-2V115h2v-2.2h1.3V115Z" transform="translate(-199 -77)"/><path class="cls-2" d="M360.4,132.9v1.5h-2v2.2h-1.3v-2.2h-2v-1.5h2v-2.2h1.3v2.2Z" transform="translate(-199 -77)"/><path class="cls-2" d="M360.4,150.8v1.5h-2v2.2h-1.3v-2.2h-2v-1.5h2v-2.2h1.3v2.2Z" transform="translate(-199 -77)"/><path class="cls-2" d="M360.4,168.7v1.5h-2v2.2h-1.3v-2.2h-2v-1.5h2v-2.2h1.3v2.2Z" transform="translate(-199 -77)"/><path class="cls-2" d="M360.4,186.6v1.5h-2v2.2h-1.3v-2.2h-2v-1.5h2v-2.2h1.3v2.2Z" transform="translate(-199 -77)"/><path class="cls-2" d="M360.4,204.5V206h-2v2.2h-1.3V206h-2v-1.5h2v-2.2h1.3v2.2Z" transform="translate(-199 -77)"/><path class="cls-2" d="M360.4,222.4v1.5h-2v2.2h-1.3v-2.2h-2v-1.5h2v-2.2h1.3v2.2Z" transform="translate(-199 -77)"/><path class="cls-2" d="M360.4,240.3v1.5h-2V244h-1.3v-2.2h-2v-1.5h2v-2.2h1.3v2.2Z" transform="translate(-199 -77)"/><path class="cls-2" d="M360.4,258.2v1.5h-2v2.2h-1.3v-2.2h-2v-1.5h2V256h1.3v2.2Z" transform="translate(-199 -77)"/><path class="cls-2" d="M360.4,276.1v1.5h-2v2.2h-1.3v-2.2h-2v-1.5h2v-2.2h1.3v2.2Z" transform="translate(-199 -77)"/><path class="cls-2" d="M360.4,294v1.5h-2v2.2h-1.3v-2.2h-2V294h2v-2.2h1.3V294Z" transform="translate(-199 -77)"/><path class="cls-2" d="M360.4,311.9v1.5h-2v2.2h-1.3v-2.2h-2v-1.5h2v-2.2h1.3v2.2Z" transform="translate(-199 -77)"/><path class="cls-2" d="M360.4,329.8v1.5h-2v2.2h-1.3v-2.2h-2v-1.5h2v-2.2h1.3v2.2Z" transform="translate(-199 -77)"/><path class="cls-2" d="M360.4,347.7v1.5h-2v2.2h-1.3v-2.2h-2v-1.5h2v-2.2h1.3v2.2Z" transform="translate(-199 -77)"/><path class="cls-2" d="M360.4,365.6v1.5h-2v2.2h-1.3v-2.2h-2v-1.5h2v-2.2h1.3v2.2Z" transform="translate(-199 -77)"/><path class="cls-2" d="M360.4,383.5V385h-2v2.2h-1.3V385h-2v-1.5h2v-2.2h1.3v2.2Z" transform="translate(-199 -77)"/><path class="cls-2" d="M360.4,401.5V403h-2v2.2h-1.3V403h-2v-1.5h2v-2.2h1.3v2.2Z" transform="translate(-199 -77)"/><path class="cls-2" d="M360.4,419.4v1.5h-2v2.2h-1.3v-2.2h-2v-1.5h2v-2.2h1.3v2.2Z" transform="translate(-199 -77)"/><path class="cls-2" d="M344.8,79.2v1.5h-2v2.2h-1.3V80.7h-2V79.2h2V77h1.3v2.2Z" transform="translate(-199 -77)"/><path class="cls-2" d="M344.8,97.1v1.5h-2v2.2h-1.3V98.6h-2V97.1h2V94.9h1.3v2.2Z" transform="translate(-199 -77)"/><path class="cls-2" d="M344.8,115v1.5h-2v2.2h-1.3v-2.2h-2V115h2v-2.2h1.3V115Z" transform="translate(-199 -77)"/><path class="cls-2" d="M344.8,132.9v1.5h-2v2.2h-1.3v-2.2h-2v-1.5h2v-2.2h1.3v2.2Z" transform="translate(-199 -77)"/><path class="cls-2" d="M344.8,150.8v1.5h-2v2.2h-1.3v-2.2h-2v-1.5h2v-2.2h1.3v2.2Z" transform="translate(-199 -77)"/><path class="cls-2" d="M344.8,168.7v1.5h-2v2.2h-1.3v-2.2h-2v-1.5h2v-2.2h1.3v2.2Z" transform="translate(-199 -77)"/><path class="cls-2" d="M344.8,186.6v1.5h-2v2.2h-1.3v-2.2h-2v-1.5h2v-2.2h1.3v2.2Z" transform="translate(-199 -77)"/><path class="cls-2" d="M344.8,204.5V206h-2v2.2h-1.3V206h-2v-1.5h2v-2.2h1.3v2.2Z" transform="translate(-199 -77)"/><path class="cls-2" d="M344.8,222.4v1.5h-2v2.2h-1.3v-2.2h-2v-1.5h2v-2.2h1.3v2.2Z" transform="translate(-199 -77)"/><path class="cls-2" d="M344.8,240.3v1.5h-2V244h-1.3v-2.2h-2v-1.5h2v-2.2h1.3v2.2Z" transform="translate(-199 -77)"/><path class="cls-2" d="M344.8,258.2v1.5h-2v2.2h-1.3v-2.2h-2v-1.5h2V256h1.3v2.2Z" transform="translate(-199 -77)"/><path class="cls-2" d="M344.8,276.1v1.5h-2v2.2h-1.3v-2.2h-2v-1.5h2v-2.2h1.3v2.2Z" transform="translate(-199 -77)"/><path class="cls-2" d="M344.8,294v1.5h-2v2.2h-1.3v-2.2h-2V294h2v-2.2h1.3V294Z" transform="translate(-199 -77)"/><path class="cls-2" d="M344.8,311.9v1.5h-2v2.2h-1.3v-2.2h-2v-1.5h2v-2.2h1.3v2.2Z" transform="translate(-199 -77)"/><path class="cls-2" d="M344.8,329.8v1.5h-2v2.2h-1.3v-2.2h-2v-1.5h2v-2.2h1.3v2.2Z" transform="translate(-199 -77)"/><path class="cls-2" d="M344.8,347.7v1.5h-2v2.2h-1.3v-2.2h-2v-1.5h2v-2.2h1.3v2.2Z" transform="translate(-199 -77)"/><path class="cls-2" d="M344.8,365.6v1.5h-2v2.2h-1.3v-2.2h-2v-1.5h2v-2.2h1.3v2.2Z" transform="translate(-199 -77)"/><path class="cls-2" d="M344.8,383.5V385h-2v2.2h-1.3V385h-2v-1.5h2v-2.2h1.3v2.2Z" transform="translate(-199 -77)"/><path class="cls-2" d="M344.8,401.5V403h-2v2.2h-1.3V403h-2v-1.5h2v-2.2h1.3v2.2Z" transform="translate(-199 -77)"/><path class="cls-2" d="M344.8,419.4v1.5h-2v2.2h-1.3v-2.2h-2v-1.5h2v-2.2h1.3v2.2Z" transform="translate(-199 -77)"/><path class="cls-2" d="M329.2,79.2v1.5h-2v2.2h-1.3V80.7h-2V79.2h2V77h1.3v2.2Z" transform="translate(-199 -77)"/><path class="cls-2" d="M329.2,97.1v1.5h-2v2.2h-1.3V98.6h-2V97.1h2V94.9h1.3v2.2Z" transform="translate(-199 -77)"/><path class="cls-2" d="M329.2,115v1.5h-2v2.2h-1.3v-2.2h-2V115h2v-2.2h1.3V115Z" transform="translate(-199 -77)"/><path class="cls-2" d="M329.2,132.9v1.5h-2v2.2h-1.3v-2.2h-2v-1.5h2v-2.2h1.3v2.2Z" transform="translate(-199 -77)"/><path class="cls-2" d="M329.2,150.8v1.5h-2v2.2h-1.3v-2.2h-2v-1.5h2v-2.2h1.3v2.2Z" transform="translate(-199 -77)"/><path class="cls-2" d="M329.2,168.7v1.5h-2v2.2h-1.3v-2.2h-2v-1.5h2v-2.2h1.3v2.2Z" transform="translate(-199 -77)"/><path class="cls-2" d="M329.2,186.6v1.5h-2v2.2h-1.3v-2.2h-2v-1.5h2v-2.2h1.3v2.2Z" transform="translate(-199 -77)"/><path class="cls-2" d="M329.2,204.5V206h-2v2.2h-1.3V206h-2v-1.5h2v-2.2h1.3v2.2Z" transform="translate(-199 -77)"/><path class="cls-2" d="M329.2,222.4v1.5h-2v2.2h-1.3v-2.2h-2v-1.5h2v-2.2h1.3v2.2Z" transform="translate(-199 -77)"/><path class="cls-2" d="M329.2,240.3v1.5h-2V244h-1.3v-2.2h-2v-1.5h2v-2.2h1.3v2.2Z" transform="translate(-199 -77)"/><path class="cls-2" d="M329.2,258.2v1.5h-2v2.2h-1.3v-2.2h-2v-1.5h2V256h1.3v2.2Z" transform="translate(-199 -77)"/><path class="cls-2" d="M329.2,276.1v1.5h-2v2.2h-1.3v-2.2h-2v-1.5h2v-2.2h1.3v2.2Z" transform="translate(-199 -77)"/><path class="cls-2" d="M329.2,294v1.5h-2v2.2h-1.3v-2.2h-2V294h2v-2.2h1.3V294Z" transform="translate(-199 -77)"/><path class="cls-2" d="M329.2,311.9v1.5h-2v2.2h-1.3v-2.2h-2v-1.5h2v-2.2h1.3v2.2Z" transform="translate(-199 -77)"/><path class="cls-2" d="M329.2,329.8v1.5h-2v2.2h-1.3v-2.2h-2v-1.5h2v-2.2h1.3v2.2Z" transform="translate(-199 -77)"/><path class="cls-2" d="M329.2,347.7v1.5h-2v2.2h-1.3v-2.2h-2v-1.5h2v-2.2h1.3v2.2Z" transform="translate(-199 -77)"/><path class="cls-2" d="M329.2,365.6v1.5h-2v2.2h-1.3v-2.2h-2v-1.5h2v-2.2h1.3v2.2Z" transform="translate(-199 -77)"/><path class="cls-2" d="M329.2,383.5V385h-2v2.2h-1.3V385h-2v-1.5h2v-2.2h1.3v2.2Z" transform="translate(-199 -77)"/><path class="cls-2" d="M329.2,401.5V403h-2v2.2h-1.3V403h-2v-1.5h2v-2.2h1.3v2.2Z" transform="translate(-199 -77)"/><path class="cls-2" d="M329.2,419.4v1.5h-2v2.2h-1.3v-2.2h-2v-1.5h2v-2.2h1.3v2.2Z" transform="translate(-199 -77)"/><path class="cls-2" d="M313.6,79.2v1.5h-2v2.2h-1.3V80.7h-2V79.2h2V77h1.3v2.2Z" transform="translate(-199 -77)"/><path class="cls-2" d="M313.6,97.1v1.5h-2v2.2h-1.3V98.6h-2V97.1h2V94.9h1.3v2.2Z" transform="translate(-199 -77)"/><path class="cls-2" d="M313.6,115v1.5h-2v2.2h-1.3v-2.2h-2V115h2v-2.2h1.3V115Z" transform="translate(-199 -77)"/><path class="cls-2" d="M313.6,132.9v1.5h-2v2.2h-1.3v-2.2h-2v-1.5h2v-2.2h1.3v2.2Z" transform="translate(-199 -77)"/><path class="cls-2" d="M313.6,150.8v1.5h-2v2.2h-1.3v-2.2h-2v-1.5h2v-2.2h1.3v2.2Z" transform="translate(-199 -77)"/><path class="cls-2" d="M313.6,168.7v1.5h-2v2.2h-1.3v-2.2h-2v-1.5h2v-2.2h1.3v2.2Z" transform="translate(-199 -77)"/><path class="cls-2" d="M313.6,186.6v1.5h-2v2.2h-1.3v-2.2h-2v-1.5h2v-2.2h1.3v2.2Z" transform="translate(-199 -77)"/><path class="cls-2" d="M313.6,204.5V206h-2v2.2h-1.3V206h-2v-1.5h2v-2.2h1.3v2.2Z" transform="translate(-199 -77)"/><path class="cls-2" d="M313.6,222.4v1.5h-2v2.2h-1.3v-2.2h-2v-1.5h2v-2.2h1.3v2.2Z" transform="translate(-199 -77)"/><path class="cls-2" d="M313.6,240.3v1.5h-2V244h-1.3v-2.2h-2v-1.5h2v-2.2h1.3v2.2Z" transform="translate(-199 -77)"/><path class="cls-2" d="M313.6,258.2v1.5h-2v2.2h-1.3v-2.2h-2v-1.5h2V256h1.3v2.2Z" transform="translate(-199 -77)"/><path class="cls-2" d="M313.6,276.1v1.5h-2v2.2h-1.3v-2.2h-2v-1.5h2v-2.2h1.3v2.2Z" transform="translate(-199 -77)"/><path class="cls-2" d="M313.6,294v1.5h-2v2.2h-1.3v-2.2h-2V294h2v-2.2h1.3V294Z" transform="translate(-199 -77)"/><path class="cls-2" d="M313.6,311.9v1.5h-2v2.2h-1.3v-2.2h-2v-1.5h2v-2.2h1.3v2.2Z" transform="translate(-199 -77)"/><path class="cls-2" d="M313.6,329.8v1.5h-2v2.2h-1.3v-2.2h-2v-1.5h2v-2.2h1.3v2.2Z" transform="translate(-199 -77)"/><path class="cls-2" d="M313.6,347.7v1.5h-2v2.2h-1.3v-2.2h-2v-1.5h2v-2.2h1.3v2.2Z" transform="translate(-199 -77)"/><path class="cls-2" d="M313.6,365.6v1.5h-2v2.2h-1.3v-2.2h-2v-1.5h2v-2.2h1.3v2.2Z" transform="translate(-199 -77)"/><path class="cls-2" d="M313.6,383.5V385h-2v2.2h-1.3V385h-2v-1.5h2v-2.2h1.3v2.2Z" transform="translate(-199 -77)"/><path class="cls-2" d="M313.6,401.5V403h-2v2.2h-1.3V403h-2v-1.5h2v-2.2h1.3v2.2Z" transform="translate(-199 -77)"/><path class="cls-2" d="M313.6,419.4v1.5h-2v2.2h-1.3v-2.2h-2v-1.5h2v-2.2h1.3v2.2Z" transform="translate(-199 -77)"/><path class="cls-2" d="M297.9,79.2v1.5h-2v2.2h-1.3V80.7h-2V79.2h2V77h1.3v2.2Z" transform="translate(-199 -77)"/><path class="cls-2" d="M297.9,97.1v1.5h-2v2.2h-1.3V98.6h-2V97.1h2V94.9h1.3v2.2Z" transform="translate(-199 -77)"/><path class="cls-2" d="M297.9,115v1.5h-2v2.2h-1.3v-2.2h-2V115h2v-2.2h1.3V115Z" transform="translate(-199 -77)"/><path class="cls-2" d="M297.9,132.9v1.5h-2v2.2h-1.3v-2.2h-2v-1.5h2v-2.2h1.3v2.2Z" transform="translate(-199 -77)"/><path class="cls-2" d="M297.9,150.8v1.5h-2v2.2h-1.3v-2.2h-2v-1.5h2v-2.2h1.3v2.2Z" transform="translate(-199 -77)"/><path class="cls-2" d="M297.9,168.7v1.5h-2v2.2h-1.3v-2.2h-2v-1.5h2v-2.2h1.3v2.2Z" transform="translate(-199 -77)"/><path class="cls-2" d="M297.9,186.6v1.5h-2v2.2h-1.3v-2.2h-2v-1.5h2v-2.2h1.3v2.2Z" transform="translate(-199 -77)"/><path class="cls-2" d="M297.9,204.5V206h-2v2.2h-1.3V206h-2v-1.5h2v-2.2h1.3v2.2Z" transform="translate(-199 -77)"/><path class="cls-2" d="M297.9,222.4v1.5h-2v2.2h-1.3v-2.2h-2v-1.5h2v-2.2h1.3v2.2Z" transform="translate(-199 -77)"/><path class="cls-2" d="M297.9,240.3v1.5h-2V244h-1.3v-2.2h-2v-1.5h2v-2.2h1.3v2.2Z" transform="translate(-199 -77)"/><path class="cls-2" d="M297.9,258.2v1.5h-2v2.2h-1.3v-2.2h-2v-1.5h2V256h1.3v2.2Z" transform="translate(-199 -77)"/><path class="cls-2" d="M297.9,276.1v1.5h-2v2.2h-1.3v-2.2h-2v-1.5h2v-2.2h1.3v2.2Z" transform="translate(-199 -77)"/><path class="cls-2" d="M297.9,294v1.5h-2v2.2h-1.3v-2.2h-2V294h2v-2.2h1.3V294Z" transform="translate(-199 -77)"/><path class="cls-2" d="M297.9,311.9v1.5h-2v2.2h-1.3v-2.2h-2v-1.5h2v-2.2h1.3v2.2Z" transform="translate(-199 -77)"/><path class="cls-2" d="M297.9,329.8v1.5h-2v2.2h-1.3v-2.2h-2v-1.5h2v-2.2h1.3v2.2Z" transform="translate(-199 -77)"/><path class="cls-2" d="M297.9,347.7v1.5h-2v2.2h-1.3v-2.2h-2v-1.5h2v-2.2h1.3v2.2Z" transform="translate(-199 -77)"/><path class="cls-2" d="M297.9,365.6v1.5h-2v2.2h-1.3v-2.2h-2v-1.5h2v-2.2h1.3v2.2Z" transform="translate(-199 -77)"/><path class="cls-2" d="M297.9,383.5V385h-2v2.2h-1.3V385h-2v-1.5h2v-2.2h1.3v2.2Z" transform="translate(-199 -77)"/><path class="cls-2" d="M297.9,401.5V403h-2v2.2h-1.3V403h-2v-1.5h2v-2.2h1.3v2.2Z" transform="translate(-199 -77)"/><path class="cls-2" d="M297.9,419.4v1.5h-2v2.2h-1.3v-2.2h-2v-1.5h2v-2.2h1.3v2.2Z" transform="translate(-199 -77)"/><path class="cls-2" d="M282.3,79.2v1.5h-2v2.2H279V80.7h-2V79.2h2V77h1.3v2.2Z" transform="translate(-199 -77)"/><path class="cls-2" d="M282.3,97.1v1.5h-2v2.2H279V98.6h-2V97.1h2V94.9h1.3v2.2Z" transform="translate(-199 -77)"/><path class="cls-2" d="M282.3,115v1.5h-2v2.2H279v-2.2h-2V115h2v-2.2h1.3V115Z" transform="translate(-199 -77)"/><path class="cls-2" d="M282.3,132.9v1.5h-2v2.2H279v-2.2h-2v-1.5h2v-2.2h1.3v2.2Z" transform="translate(-199 -77)"/><path class="cls-2" d="M282.3,150.8v1.5h-2v2.2H279v-2.2h-2v-1.5h2v-2.2h1.3v2.2Z" transform="translate(-199 -77)"/><path class="cls-2" d="M282.3,168.7v1.5h-2v2.2H279v-2.2h-2v-1.5h2v-2.2h1.3v2.2Z" transform="translate(-199 -77)"/><path class="cls-2" d="M282.3,186.6v1.5h-2v2.2H279v-2.2h-2v-1.5h2v-2.2h1.3v2.2Z" transform="translate(-199 -77)"/><path class="cls-2" d="M282.3,204.5V206h-2v2.2H279V206h-2v-1.5h2v-2.2h1.3v2.2Z" transform="translate(-199 -77)"/><path class="cls-2" d="M282.3,222.4v1.5h-2v2.2H279v-2.2h-2v-1.5h2v-2.2h1.3v2.2Z" transform="translate(-199 -77)"/><path class="cls-2" d="M282.3,240.3v1.5h-2V244H279v-2.2h-2v-1.5h2v-2.2h1.3v2.2Z" transform="translate(-199 -77)"/><path class="cls-2" d="M282.3,258.2v1.5h-2v2.2H279v-2.2h-2v-1.5h2V256h1.3v2.2Z" transform="translate(-199 -77)"/><path class="cls-2" d="M282.3,276.1v1.5h-2v2.2H279v-2.2h-2v-1.5h2v-2.2h1.3v2.2Z" transform="translate(-199 -77)"/><path class="cls-2" d="M282.3,294v1.5h-2v2.2H279v-2.2h-2V294h2v-2.2h1.3V294Z" transform="translate(-199 -77)"/><path class="cls-2" d="M282.3,311.9v1.5h-2v2.2H279v-2.2h-2v-1.5h2v-2.2h1.3v2.2Z" transform="translate(-199 -77)"/><path class="cls-2" d="M282.3,329.8v1.5h-2v2.2H279v-2.2h-2v-1.5h2v-2.2h1.3v2.2Z" transform="translate(-199 -77)"/><path class="cls-2" d="M282.3,347.7v1.5h-2v2.2H279v-2.2h-2v-1.5h2v-2.2h1.3v2.2Z" transform="translate(-199 -77)"/><path class="cls-2" d="M282.3,365.6v1.5h-2v2.2H279v-2.2h-2v-1.5h2v-2.2h1.3v2.2Z" transform="translate(-199 -77)"/><path class="cls-2" d="M282.3,383.5V385h-2v2.2H279V385h-2v-1.5h2v-2.2h1.3v2.2Z" transform="translate(-199 -77)"/><path class="cls-2" d="M282.3,401.5V403h-2v2.2H279V403h-2v-1.5h2v-2.2h1.3v2.2Z" transform="translate(-199 -77)"/><path class="cls-2" d="M282.3,419.4v1.5h-2v2.2H279v-2.2h-2v-1.5h2v-2.2h1.3v2.2Z" transform="translate(-199 -77)"/><path class="cls-2" d="M266.7,79.2v1.5h-2v2.2h-1.3V80.7h-2V79.2h2V77h1.3v2.2Z" transform="translate(-199 -77)"/><path class="cls-2" d="M266.7,97.1v1.5h-2v2.2h-1.3V98.6h-2V97.1h2V94.9h1.3v2.2Z" transform="translate(-199 -77)"/><path class="cls-2" d="M266.7,115v1.5h-2v2.2h-1.3v-2.2h-2V115h2v-2.2h1.3V115Z" transform="translate(-199 -77)"/><path class="cls-2" d="M266.7,132.9v1.5h-2v2.2h-1.3v-2.2h-2v-1.5h2v-2.2h1.3v2.2Z" transform="translate(-199 -77)"/><path class="cls-2" d="M266.7,150.8v1.5h-2v2.2h-1.3v-2.2h-2v-1.5h2v-2.2h1.3v2.2Z" transform="translate(-199 -77)"/><path class="cls-2" d="M266.7,168.7v1.5h-2v2.2h-1.3v-2.2h-2v-1.5h2v-2.2h1.3v2.2Z" transform="translate(-199 -77)"/><path class="cls-2" d="M266.7,186.6v1.5h-2v2.2h-1.3v-2.2h-2v-1.5h2v-2.2h1.3v2.2Z" transform="translate(-199 -77)"/><path class="cls-2" d="M266.7,204.5V206h-2v2.2h-1.3V206h-2v-1.5h2v-2.2h1.3v2.2Z" transform="translate(-199 -77)"/><path class="cls-2" d="M266.7,222.4v1.5h-2v2.2h-1.3v-2.2h-2v-1.5h2v-2.2h1.3v2.2Z" transform="translate(-199 -77)"/><path class="cls-2" d="M266.7,240.3v1.5h-2V244h-1.3v-2.2h-2v-1.5h2v-2.2h1.3v2.2Z" transform="translate(-199 -77)"/><path class="cls-2" d="M266.7,258.2v1.5h-2v2.2h-1.3v-2.2h-2v-1.5h2V256h1.3v2.2Z" transform="translate(-199 -77)"/><path class="cls-2" d="M266.7,276.1v1.5h-2v2.2h-1.3v-2.2h-2v-1.5h2v-2.2h1.3v2.2Z" transform="translate(-199 -77)"/><path class="cls-2" d="M266.7,294v1.5h-2v2.2h-1.3v-2.2h-2V294h2v-2.2h1.3V294Z" transform="translate(-199 -77)"/><path class="cls-2" d="M266.7,311.9v1.5h-2v2.2h-1.3v-2.2h-2v-1.5h2v-2.2h1.3v2.2Z" transform="translate(-199 -77)"/><path class="cls-2" d="M266.7,329.8v1.5h-2v2.2h-1.3v-2.2h-2v-1.5h2v-2.2h1.3v2.2Z" transform="translate(-199 -77)"/><path class="cls-2" d="M266.7,347.7v1.5h-2v2.2h-1.3v-2.2h-2v-1.5h2v-2.2h1.3v2.2Z" transform="translate(-199 -77)"/><path class="cls-2" d="M266.7,365.6v1.5h-2v2.2h-1.3v-2.2h-2v-1.5h2v-2.2h1.3v2.2Z" transform="translate(-199 -77)"/><path class="cls-2" d="M266.7,383.5V385h-2v2.2h-1.3V385h-2v-1.5h2v-2.2h1.3v2.2Z" transform="translate(-199 -77)"/><path class="cls-2" d="M266.7,401.5V403h-2v2.2h-1.3V403h-2v-1.5h2v-2.2h1.3v2.2Z" transform="translate(-199 -77)"/><path class="cls-2" d="M266.7,419.4v1.5h-2v2.2h-1.3v-2.2h-2v-1.5h2v-2.2h1.3v2.2Z" transform="translate(-199 -77)"/><path class="cls-2" d="M251.1,79.2v1.5h-2v2.2h-1.3V80.7h-2V79.2h2V77h1.3v2.2Z" transform="translate(-199 -77)"/><path class="cls-2" d="M251.1,97.1v1.5h-2v2.2h-1.3V98.6h-2V97.1h2V94.9h1.3v2.2Z" transform="translate(-199 -77)"/><path class="cls-2" d="M251.1,115v1.5h-2v2.2h-1.3v-2.2h-2V115h2v-2.2h1.3V115Z" transform="translate(-199 -77)"/><path class="cls-2" d="M251.1,132.9v1.5h-2v2.2h-1.3v-2.2h-2v-1.5h2v-2.2h1.3v2.2Z" transform="translate(-199 -77)"/><path class="cls-2" d="M251.1,150.8v1.5h-2v2.2h-1.3v-2.2h-2v-1.5h2v-2.2h1.3v2.2Z" transform="translate(-199 -77)"/><path class="cls-2" d="M251.1,168.7v1.5h-2v2.2h-1.3v-2.2h-2v-1.5h2v-2.2h1.3v2.2Z" transform="translate(-199 -77)"/><path class="cls-2" d="M251.1,186.6v1.5h-2v2.2h-1.3v-2.2h-2v-1.5h2v-2.2h1.3v2.2Z" transform="translate(-199 -77)"/><path class="cls-2" d="M251.1,204.5V206h-2v2.2h-1.3V206h-2v-1.5h2v-2.2h1.3v2.2Z" transform="translate(-199 -77)"/><path class="cls-2" d="M251.1,222.4v1.5h-2v2.2h-1.3v-2.2h-2v-1.5h2v-2.2h1.3v2.2Z" transform="translate(-199 -77)"/><path class="cls-2" d="M251.1,240.3v1.5h-2V244h-1.3v-2.2h-2v-1.5h2v-2.2h1.3v2.2Z" transform="translate(-199 -77)"/><path class="cls-2" d="M251.1,258.2v1.5h-2v2.2h-1.3v-2.2h-2v-1.5h2V256h1.3v2.2Z" transform="translate(-199 -77)"/><path class="cls-2" d="M251.1,276.1v1.5h-2v2.2h-1.3v-2.2h-2v-1.5h2v-2.2h1.3v2.2Z" transform="translate(-199 -77)"/><path class="cls-2" d="M251.1,294v1.5h-2v2.2h-1.3v-2.2h-2V294h2v-2.2h1.3V294Z" transform="translate(-199 -77)"/><path class="cls-2" d="M251.1,311.9v1.5h-2v2.2h-1.3v-2.2h-2v-1.5h2v-2.2h1.3v2.2Z" transform="translate(-199 -77)"/><path class="cls-2" d="M251.1,329.8v1.5h-2v2.2h-1.3v-2.2h-2v-1.5h2v-2.2h1.3v2.2Z" transform="translate(-199 -77)"/><path class="cls-2" d="M251.1,347.7v1.5h-2v2.2h-1.3v-2.2h-2v-1.5h2v-2.2h1.3v2.2Z" transform="translate(-199 -77)"/><path class="cls-2" d="M251.1,365.6v1.5h-2v2.2h-1.3v-2.2h-2v-1.5h2v-2.2h1.3v2.2Z" transform="translate(-199 -77)"/><path class="cls-2" d="M251.1,383.5V385h-2v2.2h-1.3V385h-2v-1.5h2v-2.2h1.3v2.2Z" transform="translate(-199 -77)"/><path class="cls-2" d="M251.1,401.5V403h-2v2.2h-1.3V403h-2v-1.5h2v-2.2h1.3v2.2Z" transform="translate(-199 -77)"/><path class="cls-2" d="M251.1,419.4v1.5h-2v2.2h-1.3v-2.2h-2v-1.5h2v-2.2h1.3v2.2Z" transform="translate(-199 -77)"/><path class="cls-2" d="M235.4,79.2v1.5h-2v2.2h-1.3V80.7h-2V79.2h2V77h1.3v2.2Z" transform="translate(-199 -77)"/><path class="cls-2" d="M235.4,97.1v1.5h-2v2.2h-1.3V98.6h-2V97.1h2V94.9h1.3v2.2Z" transform="translate(-199 -77)"/><path class="cls-2" d="M235.4,115v1.5h-2v2.2h-1.3v-2.2h-2V115h2v-2.2h1.3V115Z" transform="translate(-199 -77)"/><path class="cls-2" d="M235.4,132.9v1.5h-2v2.2h-1.3v-2.2h-2v-1.5h2v-2.2h1.3v2.2Z" transform="translate(-199 -77)"/><path class="cls-2" d="M235.4,150.8v1.5h-2v2.2h-1.3v-2.2h-2v-1.5h2v-2.2h1.3v2.2Z" transform="translate(-199 -77)"/><path class="cls-2" d="M235.4,168.7v1.5h-2v2.2h-1.3v-2.2h-2v-1.5h2v-2.2h1.3v2.2Z" transform="translate(-199 -77)"/><path class="cls-2" d="M235.4,186.6v1.5h-2v2.2h-1.3v-2.2h-2v-1.5h2v-2.2h1.3v2.2Z" transform="translate(-199 -77)"/><path class="cls-2" d="M235.4,204.5V206h-2v2.2h-1.3V206h-2v-1.5h2v-2.2h1.3v2.2Z" transform="translate(-199 -77)"/><path class="cls-2" d="M235.4,222.4v1.5h-2v2.2h-1.3v-2.2h-2v-1.5h2v-2.2h1.3v2.2Z" transform="translate(-199 -77)"/><path class="cls-2" d="M235.4,240.3v1.5h-2V244h-1.3v-2.2h-2v-1.5h2v-2.2h1.3v2.2Z" transform="translate(-199 -77)"/><path class="cls-2" d="M235.4,258.2v1.5h-2v2.2h-1.3v-2.2h-2v-1.5h2V256h1.3v2.2Z" transform="translate(-199 -77)"/><path class="cls-2" d="M235.4,276.1v1.5h-2v2.2h-1.3v-2.2h-2v-1.5h2v-2.2h1.3v2.2Z" transform="translate(-199 -77)"/><path class="cls-2" d="M235.4,294v1.5h-2v2.2h-1.3v-2.2h-2V294h2v-2.2h1.3V294Z" transform="translate(-199 -77)"/><path class="cls-2" d="M235.4,311.9v1.5h-2v2.2h-1.3v-2.2h-2v-1.5h2v-2.2h1.3v2.2Z" transform="translate(-199 -77)"/><path class="cls-2" d="M235.4,329.8v1.5h-2v2.2h-1.3v-2.2h-2v-1.5h2v-2.2h1.3v2.2Z" transform="translate(-199 -77)"/><path class="cls-2" d="M235.4,347.7v1.5h-2v2.2h-1.3v-2.2h-2v-1.5h2v-2.2h1.3v2.2Z" transform="translate(-199 -77)"/><path class="cls-2" d="M235.4,365.6v1.5h-2v2.2h-1.3v-2.2h-2v-1.5h2v-2.2h1.3v2.2Z" transform="translate(-199 -77)"/><path class="cls-2" d="M235.4,383.5V385h-2v2.2h-1.3V385h-2v-1.5h2v-2.2h1.3v2.2Z" transform="translate(-199 -77)"/><path class="cls-2" d="M235.4,401.5V403h-2v2.2h-1.3V403h-2v-1.5h2v-2.2h1.3v2.2Z" transform="translate(-199 -77)"/><path class="cls-2" d="M235.4,419.4v1.5h-2v2.2h-1.3v-2.2h-2v-1.5h2v-2.2h1.3v2.2Z" transform="translate(-199 -77)"/><path class="cls-2" d="M219.8,79.2v1.5h-2v2.2h-1.3V80.7h-2V79.2h2V77h1.3v2.2Z" transform="translate(-199 -77)"/><path class="cls-2" d="M219.8,97.1v1.5h-2v2.2h-1.3V98.6h-2V97.1h2V94.9h1.3v2.2Z" transform="translate(-199 -77)"/><path class="cls-2" d="M219.8,115v1.5h-2v2.2h-1.3v-2.2h-2V115h2v-2.2h1.3V115Z" transform="translate(-199 -77)"/><path class="cls-2" d="M219.8,132.9v1.5h-2v2.2h-1.3v-2.2h-2v-1.5h2v-2.2h1.3v2.2Z" transform="translate(-199 -77)"/><path class="cls-2" d="M219.8,150.8v1.5h-2v2.2h-1.3v-2.2h-2v-1.5h2v-2.2h1.3v2.2Z" transform="translate(-199 -77)"/><path class="cls-2" d="M219.8,168.7v1.5h-2v2.2h-1.3v-2.2h-2v-1.5h2v-2.2h1.3v2.2Z" transform="translate(-199 -77)"/><path class="cls-2" d="M219.8,186.6v1.5h-2v2.2h-1.3v-2.2h-2v-1.5h2v-2.2h1.3v2.2Z" transform="translate(-199 -77)"/><path class="cls-2" d="M219.8,204.5V206h-2v2.2h-1.3V206h-2v-1.5h2v-2.2h1.3v2.2Z" transform="translate(-199 -77)"/><path class="cls-2" d="M219.8,222.4v1.5h-2v2.2h-1.3v-2.2h-2v-1.5h2v-2.2h1.3v2.2Z" transform="translate(-199 -77)"/><path class="cls-2" d="M219.8,240.3v1.5h-2V244h-1.3v-2.2h-2v-1.5h2v-2.2h1.3v2.2Z" transform="translate(-199 -77)"/><path class="cls-2" d="M219.8,258.2v1.5h-2v2.2h-1.3v-2.2h-2v-1.5h2V256h1.3v2.2Z" transform="translate(-199 -77)"/><path class="cls-2" d="M219.8,276.1v1.5h-2v2.2h-1.3v-2.2h-2v-1.5h2v-2.2h1.3v2.2Z" transform="translate(-199 -77)"/><path class="cls-2" d="M219.8,294v1.5h-2v2.2h-1.3v-2.2h-2V294h2v-2.2h1.3V294Z" transform="translate(-199 -77)"/><path class="cls-2" d="M219.8,311.9v1.5h-2v2.2h-1.3v-2.2h-2v-1.5h2v-2.2h1.3v2.2Z" transform="translate(-199 -77)"/><path class="cls-2" d="M219.8,329.8v1.5h-2v2.2h-1.3v-2.2h-2v-1.5h2v-2.2h1.3v2.2Z" transform="translate(-199 -77)"/><path class="cls-2" d="M219.8,347.7v1.5h-2v2.2h-1.3v-2.2h-2v-1.5h2v-2.2h1.3v2.2Z" transform="translate(-199 -77)"/><path class="cls-2" d="M219.8,365.6v1.5h-2v2.2h-1.3v-2.2h-2v-1.5h2v-2.2h1.3v2.2Z" transform="translate(-199 -77)"/><path class="cls-2" d="M219.8,383.5V385h-2v2.2h-1.3V385h-2v-1.5h2v-2.2h1.3v2.2Z" transform="translate(-199 -77)"/><path class="cls-2" d="M219.8,401.5V403h-2v2.2h-1.3V403h-2v-1.5h2v-2.2h1.3v2.2Z" transform="translate(-199 -77)"/><path class="cls-2" d="M219.8,419.4v1.5h-2v2.2h-1.3v-2.2h-2v-1.5h2v-2.2h1.3v2.2Z" transform="translate(-199 -77)"/><path class="cls-2" d="M204.2,79.2v1.5h-2v2.2H201V80.7h-2V79.2h2V77h1.3v2.2Z" transform="translate(-199 -77)"/><path class="cls-2" d="M204.2,97.1v1.5h-2v2.2H201V98.6h-2V97.1h2V94.9h1.3v2.2Z" transform="translate(-199 -77)"/><path class="cls-2" d="M204.2,115v1.5h-2v2.2H201v-2.2h-2V115h2v-2.2h1.3V115Z" transform="translate(-199 -77)"/><path class="cls-2" d="M204.2,132.9v1.5h-2v2.2H201v-2.2h-2v-1.5h2v-2.2h1.3v2.2Z" transform="translate(-199 -77)"/><path class="cls-2" d="M204.2,150.8v1.5h-2v2.2H201v-2.2h-2v-1.5h2v-2.2h1.3v2.2Z" transform="translate(-199 -77)"/><path class="cls-2" d="M204.2,168.7v1.5h-2v2.2H201v-2.2h-2v-1.5h2v-2.2h1.3v2.2Z" transform="translate(-199 -77)"/><path class="cls-2" d="M204.2,186.6v1.5h-2v2.2H201v-2.2h-2v-1.5h2v-2.2h1.3v2.2Z" transform="translate(-199 -77)"/><path class="cls-2" d="M204.2,204.5V206h-2v2.2H201V206h-2v-1.5h2v-2.2h1.3v2.2Z" transform="translate(-199 -77)"/><path class="cls-2" d="M204.2,222.4v1.5h-2v2.2H201v-2.2h-2v-1.5h2v-2.2h1.3v2.2Z" transform="translate(-199 -77)"/><path class="cls-2" d="M204.2,240.3v1.5h-2V244H201v-2.2h-2v-1.5h2v-2.2h1.3v2.2Z" transform="translate(-199 -77)"/><path class="cls-2" d="M204.2,258.2v1.5h-2v2.2H201v-2.2h-2v-1.5h2V256h1.3v2.2Z" transform="translate(-199 -77)"/><path class="cls-2" d="M204.2,276.1v1.5h-2v2.2H201v-2.2h-2v-1.5h2v-2.2h1.3v2.2Z" transform="translate(-199 -77)"/><path class="cls-2" d="M204.2,294v1.5h-2v2.2H201v-2.2h-2V294h2v-2.2h1.3V294Z" transform="translate(-199 -77)"/><path class="cls-2" d="M204.2,311.9v1.5h-2v2.2H201v-2.2h-2v-1.5h2v-2.2h1.3v2.2Z" transform="translate(-199 -77)"/><path class="cls-2" d="M204.2,329.8v1.5h-2v2.2H201v-2.2h-2v-1.5h2v-2.2h1.3v2.2Z" transform="translate(-199 -77)"/><path class="cls-2" d="M204.2,347.7v1.5h-2v2.2H201v-2.2h-2v-1.5h2v-2.2h1.3v2.2Z" transform="translate(-199 -77)"/><path class="cls-2" d="M204.2,365.6v1.5h-2v2.2H201v-2.2h-2v-1.5h2v-2.2h1.3v2.2Z" transform="translate(-199 -77)"/><path class="cls-2" d="M204.2,383.5V385h-2v2.2H201V385h-2v-1.5h2v-2.2h1.3v2.2Z" transform="translate(-199 -77)"/><path class="cls-2" d="M204.2,401.5V403h-2v2.2H201V403h-2v-1.5h2v-2.2h1.3v2.2Z" transform="translate(-199 -77)"/><path class="cls-2" d="M204.2,419.4v1.5h-2v2.2H201v-2.2h-2v-1.5h2v-2.2h1.3v2.2Z" transform="translate(-199 -77)"/></g></svg>