<?xml version="1.0" encoding="utf-8"?>
<!-- Generator: Adobe Illustrator 25.2.3, SVG Export Plug-In . SVG Version: 6.00 Build 0)  -->
<svg version="1.1" id="Layer_1" xmlns="http://www.w3.org/2000/svg" xmlns:xlink="http://www.w3.org/1999/xlink" x="0px" y="0px"
	 viewBox="0 0 700 500" style="enable-background:new 0 0 700 500;" xml:space="preserve">
<style type="text/css">
	.st0{opacity:0.1;}
	.st1{fill:#295271;}
	.st2{enable-background:new    ;}
	.st3{fill:#404C9F;}
	.st4{fill:url(#SVGID_1_);}
	.st5{fill:url(#SVGID_2_);}
	.st6{fill:url(#SVGID_3_);}
	.st7{fill:url(#SVGID_4_);}
	.st8{fill:#FFFFFF;}
</style>
<g class="st0">
	<path class="st1" d="M501,79.2v1.5h-2v2.2h-1.3v-2.2h-2v-1.5h2v-2.2h1.3v2.2H501z"/>
	<path class="st1" d="M501,97.1v1.5h-2v2.2h-1.3v-2.2h-2v-1.5h2v-2.2h1.3v2.2H501z"/>
	<path class="st1" d="M501,115v1.5h-2v2.2h-1.3v-2.2h-2V115h2v-2.2h1.3v2.2H501z"/>
	<path class="st1" d="M501,132.9v1.5h-2v2.2h-1.3v-2.2h-2v-1.5h2v-2.2h1.3v2.2H501z"/>
	<path class="st1" d="M501,150.8v1.5h-2v2.2h-1.3v-2.2h-2v-1.5h2v-2.2h1.3v2.2H501z"/>
	<path class="st1" d="M501,168.7v1.5h-2v2.2h-1.3v-2.2h-2v-1.5h2v-2.2h1.3v2.2H501z"/>
	<path class="st1" d="M501,186.6v1.5h-2v2.2h-1.3v-2.2h-2v-1.5h2v-2.2h1.3v2.2H501z"/>
	<path class="st1" d="M501,204.5v1.5h-2v2.2h-1.3V206h-2v-1.5h2v-2.2h1.3v2.2H501z"/>
	<path class="st1" d="M501,222.4v1.5h-2v2.2h-1.3v-2.2h-2v-1.5h2v-2.2h1.3v2.2H501z"/>
	<path class="st1" d="M501,240.3v1.5h-2v2.2h-1.3v-2.2h-2v-1.5h2v-2.2h1.3v2.2H501z"/>
	<path class="st1" d="M501,258.2v1.5h-2v2.2h-1.3v-2.2h-2v-1.5h2V256h1.3v2.2H501z"/>
	<path class="st1" d="M501,276.1v1.5h-2v2.2h-1.3v-2.2h-2v-1.5h2v-2.2h1.3v2.2H501z"/>
	<path class="st1" d="M501,294v1.5h-2v2.2h-1.3v-2.2h-2V294h2v-2.2h1.3v2.2H501z"/>
	<path class="st1" d="M501,311.9v1.5h-2v2.2h-1.3v-2.2h-2v-1.5h2v-2.2h1.3v2.2H501z"/>
	<path class="st1" d="M501,329.8v1.5h-2v2.2h-1.3v-2.2h-2v-1.5h2v-2.2h1.3v2.2H501z"/>
	<path class="st1" d="M501,347.7v1.5h-2v2.2h-1.3v-2.2h-2v-1.5h2v-2.2h1.3v2.2H501z"/>
	<path class="st1" d="M501,365.6v1.5h-2v2.2h-1.3v-2.2h-2v-1.5h2v-2.2h1.3v2.2H501z"/>
	<path class="st1" d="M501,383.5v1.5h-2v2.2h-1.3V385h-2v-1.5h2v-2.2h1.3v2.2H501z"/>
	<path class="st1" d="M501,401.5v1.5h-2v2.2h-1.3v-2.2h-2v-1.5h2v-2.2h1.3v2.2H501z"/>
	<path class="st1" d="M501,419.4v1.5h-2v2.2h-1.3v-2.2h-2v-1.5h2v-2.2h1.3v2.2H501z"/>
	<path class="st1" d="M485.4,79.2v1.5h-2v2.2h-1.3v-2.2h-2v-1.5h2v-2.2h1.3v2.2H485.4z"/>
	<path class="st1" d="M485.4,97.1v1.5h-2v2.2h-1.3v-2.2h-2v-1.5h2v-2.2h1.3v2.2H485.4z"/>
	<path class="st1" d="M485.4,115v1.5h-2v2.2h-1.3v-2.2h-2V115h2v-2.2h1.3v2.2H485.4z"/>
	<path class="st1" d="M485.4,132.9v1.5h-2v2.2h-1.3v-2.2h-2v-1.5h2v-2.2h1.3v2.2H485.4z"/>
	<path class="st1" d="M485.4,150.8v1.5h-2v2.2h-1.3v-2.2h-2v-1.5h2v-2.2h1.3v2.2H485.4z"/>
	<path class="st1" d="M485.4,168.7v1.5h-2v2.2h-1.3v-2.2h-2v-1.5h2v-2.2h1.3v2.2H485.4z"/>
	<path class="st1" d="M485.4,186.6v1.5h-2v2.2h-1.3v-2.2h-2v-1.5h2v-2.2h1.3v2.2H485.4z"/>
	<path class="st1" d="M485.4,204.5v1.5h-2v2.2h-1.3V206h-2v-1.5h2v-2.2h1.3v2.2H485.4z"/>
	<path class="st1" d="M485.4,222.4v1.5h-2v2.2h-1.3v-2.2h-2v-1.5h2v-2.2h1.3v2.2H485.4z"/>
	<path class="st1" d="M485.4,240.3v1.5h-2v2.2h-1.3v-2.2h-2v-1.5h2v-2.2h1.3v2.2H485.4z"/>
	<path class="st1" d="M485.4,258.2v1.5h-2v2.2h-1.3v-2.2h-2v-1.5h2V256h1.3v2.2H485.4z"/>
	<path class="st1" d="M485.4,276.1v1.5h-2v2.2h-1.3v-2.2h-2v-1.5h2v-2.2h1.3v2.2H485.4z"/>
	<path class="st1" d="M485.4,294v1.5h-2v2.2h-1.3v-2.2h-2V294h2v-2.2h1.3v2.2H485.4z"/>
	<path class="st1" d="M485.4,311.9v1.5h-2v2.2h-1.3v-2.2h-2v-1.5h2v-2.2h1.3v2.2H485.4z"/>
	<path class="st1" d="M485.4,329.8v1.5h-2v2.2h-1.3v-2.2h-2v-1.5h2v-2.2h1.3v2.2H485.4z"/>
	<path class="st1" d="M485.4,347.7v1.5h-2v2.2h-1.3v-2.2h-2v-1.5h2v-2.2h1.3v2.2H485.4z"/>
	<path class="st1" d="M485.4,365.6v1.5h-2v2.2h-1.3v-2.2h-2v-1.5h2v-2.2h1.3v2.2H485.4z"/>
	<path class="st1" d="M485.4,383.5v1.5h-2v2.2h-1.3V385h-2v-1.5h2v-2.2h1.3v2.2H485.4z"/>
	<path class="st1" d="M485.4,401.5v1.5h-2v2.2h-1.3v-2.2h-2v-1.5h2v-2.2h1.3v2.2H485.4z"/>
	<path class="st1" d="M485.4,419.4v1.5h-2v2.2h-1.3v-2.2h-2v-1.5h2v-2.2h1.3v2.2H485.4z"/>
	<path class="st1" d="M469.8,79.2v1.5h-2v2.2h-1.3v-2.2h-2v-1.5h2v-2.2h1.3v2.2H469.8z"/>
	<path class="st1" d="M469.8,97.1v1.5h-2v2.2h-1.3v-2.2h-2v-1.5h2v-2.2h1.3v2.2H469.8z"/>
	<path class="st1" d="M469.8,115v1.5h-2v2.2h-1.3v-2.2h-2V115h2v-2.2h1.3v2.2H469.8z"/>
	<path class="st1" d="M469.8,132.9v1.5h-2v2.2h-1.3v-2.2h-2v-1.5h2v-2.2h1.3v2.2H469.8z"/>
	<path class="st1" d="M469.8,150.8v1.5h-2v2.2h-1.3v-2.2h-2v-1.5h2v-2.2h1.3v2.2H469.8z"/>
	<path class="st1" d="M469.8,168.7v1.5h-2v2.2h-1.3v-2.2h-2v-1.5h2v-2.2h1.3v2.2H469.8z"/>
	<path class="st1" d="M469.8,186.6v1.5h-2v2.2h-1.3v-2.2h-2v-1.5h2v-2.2h1.3v2.2H469.8z"/>
	<path class="st1" d="M469.8,204.5v1.5h-2v2.2h-1.3V206h-2v-1.5h2v-2.2h1.3v2.2H469.8z"/>
	<path class="st1" d="M469.8,222.4v1.5h-2v2.2h-1.3v-2.2h-2v-1.5h2v-2.2h1.3v2.2H469.8z"/>
	<path class="st1" d="M469.8,240.3v1.5h-2v2.2h-1.3v-2.2h-2v-1.5h2v-2.2h1.3v2.2H469.8z"/>
	<path class="st1" d="M469.8,258.2v1.5h-2v2.2h-1.3v-2.2h-2v-1.5h2V256h1.3v2.2H469.8z"/>
	<path class="st1" d="M469.8,276.1v1.5h-2v2.2h-1.3v-2.2h-2v-1.5h2v-2.2h1.3v2.2H469.8z"/>
	<path class="st1" d="M469.8,294v1.5h-2v2.2h-1.3v-2.2h-2V294h2v-2.2h1.3v2.2H469.8z"/>
	<path class="st1" d="M469.8,311.9v1.5h-2v2.2h-1.3v-2.2h-2v-1.5h2v-2.2h1.3v2.2H469.8z"/>
	<path class="st1" d="M469.8,329.8v1.5h-2v2.2h-1.3v-2.2h-2v-1.5h2v-2.2h1.3v2.2H469.8z"/>
	<path class="st1" d="M469.8,347.7v1.5h-2v2.2h-1.3v-2.2h-2v-1.5h2v-2.2h1.3v2.2H469.8z"/>
	<path class="st1" d="M469.8,365.6v1.5h-2v2.2h-1.3v-2.2h-2v-1.5h2v-2.2h1.3v2.2H469.8z"/>
	<path class="st1" d="M469.8,383.5v1.5h-2v2.2h-1.3V385h-2v-1.5h2v-2.2h1.3v2.2H469.8z"/>
	<path class="st1" d="M469.8,401.5v1.5h-2v2.2h-1.3v-2.2h-2v-1.5h2v-2.2h1.3v2.2H469.8z"/>
	<path class="st1" d="M469.8,419.4v1.5h-2v2.2h-1.3v-2.2h-2v-1.5h2v-2.2h1.3v2.2H469.8z"/>
	<path class="st1" d="M454.1,79.2v1.5h-2v2.2h-1.3v-2.2h-2v-1.5h2v-2.2h1.3v2.2H454.1z"/>
	<path class="st1" d="M454.1,97.1v1.5h-2v2.2h-1.3v-2.2h-2v-1.5h2v-2.2h1.3v2.2H454.1z"/>
	<path class="st1" d="M454.1,115v1.5h-2v2.2h-1.3v-2.2h-2V115h2v-2.2h1.3v2.2H454.1z"/>
	<path class="st1" d="M454.1,132.9v1.5h-2v2.2h-1.3v-2.2h-2v-1.5h2v-2.2h1.3v2.2H454.1z"/>
	<path class="st1" d="M454.1,150.8v1.5h-2v2.2h-1.3v-2.2h-2v-1.5h2v-2.2h1.3v2.2H454.1z"/>
	<path class="st1" d="M454.1,168.7v1.5h-2v2.2h-1.3v-2.2h-2v-1.5h2v-2.2h1.3v2.2H454.1z"/>
	<path class="st1" d="M454.1,186.6v1.5h-2v2.2h-1.3v-2.2h-2v-1.5h2v-2.2h1.3v2.2H454.1z"/>
	<path class="st1" d="M454.1,204.5v1.5h-2v2.2h-1.3V206h-2v-1.5h2v-2.2h1.3v2.2H454.1z"/>
	<path class="st1" d="M454.1,222.4v1.5h-2v2.2h-1.3v-2.2h-2v-1.5h2v-2.2h1.3v2.2H454.1z"/>
	<path class="st1" d="M454.1,240.3v1.5h-2v2.2h-1.3v-2.2h-2v-1.5h2v-2.2h1.3v2.2H454.1z"/>
	<path class="st1" d="M454.1,258.2v1.5h-2v2.2h-1.3v-2.2h-2v-1.5h2V256h1.3v2.2H454.1z"/>
	<path class="st1" d="M454.1,276.1v1.5h-2v2.2h-1.3v-2.2h-2v-1.5h2v-2.2h1.3v2.2H454.1z"/>
	<path class="st1" d="M454.1,294v1.5h-2v2.2h-1.3v-2.2h-2V294h2v-2.2h1.3v2.2H454.1z"/>
	<path class="st1" d="M454.1,311.9v1.5h-2v2.2h-1.3v-2.2h-2v-1.5h2v-2.2h1.3v2.2H454.1z"/>
	<path class="st1" d="M454.1,329.8v1.5h-2v2.2h-1.3v-2.2h-2v-1.5h2v-2.2h1.3v2.2H454.1z"/>
	<path class="st1" d="M454.1,347.7v1.5h-2v2.2h-1.3v-2.2h-2v-1.5h2v-2.2h1.3v2.2H454.1z"/>
	<path class="st1" d="M454.1,365.6v1.5h-2v2.2h-1.3v-2.2h-2v-1.5h2v-2.2h1.3v2.2H454.1z"/>
	<path class="st1" d="M454.1,383.5v1.5h-2v2.2h-1.3V385h-2v-1.5h2v-2.2h1.3v2.2H454.1z"/>
	<path class="st1" d="M454.1,401.5v1.5h-2v2.2h-1.3v-2.2h-2v-1.5h2v-2.2h1.3v2.2H454.1z"/>
	<path class="st1" d="M454.1,419.4v1.5h-2v2.2h-1.3v-2.2h-2v-1.5h2v-2.2h1.3v2.2H454.1z"/>
	<path class="st1" d="M438.5,79.2v1.5h-2v2.2h-1.3v-2.2h-2v-1.5h2v-2.2h1.3v2.2H438.5z"/>
	<path class="st1" d="M438.5,97.1v1.5h-2v2.2h-1.3v-2.2h-2v-1.5h2v-2.2h1.3v2.2H438.5z"/>
	<path class="st1" d="M438.5,115v1.5h-2v2.2h-1.3v-2.2h-2V115h2v-2.2h1.3v2.2H438.5z"/>
	<path class="st1" d="M438.5,132.9v1.5h-2v2.2h-1.3v-2.2h-2v-1.5h2v-2.2h1.3v2.2H438.5z"/>
	<path class="st1" d="M438.5,150.8v1.5h-2v2.2h-1.3v-2.2h-2v-1.5h2v-2.2h1.3v2.2H438.5z"/>
	<path class="st1" d="M438.5,168.7v1.5h-2v2.2h-1.3v-2.2h-2v-1.5h2v-2.2h1.3v2.2H438.5z"/>
	<path class="st1" d="M438.5,186.6v1.5h-2v2.2h-1.3v-2.2h-2v-1.5h2v-2.2h1.3v2.2H438.5z"/>
	<path class="st1" d="M438.5,204.5v1.5h-2v2.2h-1.3V206h-2v-1.5h2v-2.2h1.3v2.2H438.5z"/>
	<path class="st1" d="M438.5,222.4v1.5h-2v2.2h-1.3v-2.2h-2v-1.5h2v-2.2h1.3v2.2H438.5z"/>
	<path class="st1" d="M438.5,240.3v1.5h-2v2.2h-1.3v-2.2h-2v-1.5h2v-2.2h1.3v2.2H438.5z"/>
	<path class="st1" d="M438.5,258.2v1.5h-2v2.2h-1.3v-2.2h-2v-1.5h2V256h1.3v2.2H438.5z"/>
	<path class="st1" d="M438.5,276.1v1.5h-2v2.2h-1.3v-2.2h-2v-1.5h2v-2.2h1.3v2.2H438.5z"/>
	<path class="st1" d="M438.5,294v1.5h-2v2.2h-1.3v-2.2h-2V294h2v-2.2h1.3v2.2H438.5z"/>
	<path class="st1" d="M438.5,311.9v1.5h-2v2.2h-1.3v-2.2h-2v-1.5h2v-2.2h1.3v2.2H438.5z"/>
	<path class="st1" d="M438.5,329.8v1.5h-2v2.2h-1.3v-2.2h-2v-1.5h2v-2.2h1.3v2.2H438.5z"/>
	<path class="st1" d="M438.5,347.7v1.5h-2v2.2h-1.3v-2.2h-2v-1.5h2v-2.2h1.3v2.2H438.5z"/>
	<path class="st1" d="M438.5,365.6v1.5h-2v2.2h-1.3v-2.2h-2v-1.5h2v-2.2h1.3v2.2H438.5z"/>
	<path class="st1" d="M438.5,383.5v1.5h-2v2.2h-1.3V385h-2v-1.5h2v-2.2h1.3v2.2H438.5z"/>
	<path class="st1" d="M438.5,401.5v1.5h-2v2.2h-1.3v-2.2h-2v-1.5h2v-2.2h1.3v2.2H438.5z"/>
	<path class="st1" d="M438.5,419.4v1.5h-2v2.2h-1.3v-2.2h-2v-1.5h2v-2.2h1.3v2.2H438.5z"/>
	<path class="st1" d="M422.9,79.2v1.5h-2v2.2h-1.3v-2.2h-2v-1.5h2v-2.2h1.3v2.2H422.9z"/>
	<path class="st1" d="M422.9,97.1v1.5h-2v2.2h-1.3v-2.2h-2v-1.5h2v-2.2h1.3v2.2H422.9z"/>
	<path class="st1" d="M422.9,115v1.5h-2v2.2h-1.3v-2.2h-2V115h2v-2.2h1.3v2.2H422.9z"/>
	<path class="st1" d="M422.9,132.9v1.5h-2v2.2h-1.3v-2.2h-2v-1.5h2v-2.2h1.3v2.2H422.9z"/>
	<path class="st1" d="M422.9,150.8v1.5h-2v2.2h-1.3v-2.2h-2v-1.5h2v-2.2h1.3v2.2H422.9z"/>
	<path class="st1" d="M422.9,168.7v1.5h-2v2.2h-1.3v-2.2h-2v-1.5h2v-2.2h1.3v2.2H422.9z"/>
	<path class="st1" d="M422.9,186.6v1.5h-2v2.2h-1.3v-2.2h-2v-1.5h2v-2.2h1.3v2.2H422.9z"/>
	<path class="st1" d="M422.9,204.5v1.5h-2v2.2h-1.3V206h-2v-1.5h2v-2.2h1.3v2.2H422.9z"/>
	<path class="st1" d="M422.9,222.4v1.5h-2v2.2h-1.3v-2.2h-2v-1.5h2v-2.2h1.3v2.2H422.9z"/>
	<path class="st1" d="M422.9,240.3v1.5h-2v2.2h-1.3v-2.2h-2v-1.5h2v-2.2h1.3v2.2H422.9z"/>
	<path class="st1" d="M422.9,258.2v1.5h-2v2.2h-1.3v-2.2h-2v-1.5h2V256h1.3v2.2H422.9z"/>
	<path class="st1" d="M422.9,276.1v1.5h-2v2.2h-1.3v-2.2h-2v-1.5h2v-2.2h1.3v2.2H422.9z"/>
	<path class="st1" d="M422.9,294v1.5h-2v2.2h-1.3v-2.2h-2V294h2v-2.2h1.3v2.2H422.9z"/>
	<path class="st1" d="M422.9,311.9v1.5h-2v2.2h-1.3v-2.2h-2v-1.5h2v-2.2h1.3v2.2H422.9z"/>
	<path class="st1" d="M422.9,329.8v1.5h-2v2.2h-1.3v-2.2h-2v-1.5h2v-2.2h1.3v2.2H422.9z"/>
	<path class="st1" d="M422.9,347.7v1.5h-2v2.2h-1.3v-2.2h-2v-1.5h2v-2.2h1.3v2.2H422.9z"/>
	<path class="st1" d="M422.9,365.6v1.5h-2v2.2h-1.3v-2.2h-2v-1.5h2v-2.2h1.3v2.2H422.9z"/>
	<path class="st1" d="M422.9,383.5v1.5h-2v2.2h-1.3V385h-2v-1.5h2v-2.2h1.3v2.2H422.9z"/>
	<path class="st1" d="M422.9,401.5v1.5h-2v2.2h-1.3v-2.2h-2v-1.5h2v-2.2h1.3v2.2H422.9z"/>
	<path class="st1" d="M422.9,419.4v1.5h-2v2.2h-1.3v-2.2h-2v-1.5h2v-2.2h1.3v2.2H422.9z"/>
	<path class="st1" d="M407.3,79.2v1.5h-2v2.2H404v-2.2h-2v-1.5h2v-2.2h1.3v2.2H407.3z"/>
	<path class="st1" d="M407.3,97.1v1.5h-2v2.2H404v-2.2h-2v-1.5h2v-2.2h1.3v2.2H407.3z"/>
	<path class="st1" d="M407.3,115v1.5h-2v2.2H404v-2.2h-2V115h2v-2.2h1.3v2.2H407.3z"/>
	<path class="st1" d="M407.3,132.9v1.5h-2v2.2H404v-2.2h-2v-1.5h2v-2.2h1.3v2.2H407.3z"/>
	<path class="st1" d="M407.3,150.8v1.5h-2v2.2H404v-2.2h-2v-1.5h2v-2.2h1.3v2.2H407.3z"/>
	<path class="st1" d="M407.3,168.7v1.5h-2v2.2H404v-2.2h-2v-1.5h2v-2.2h1.3v2.2H407.3z"/>
	<path class="st1" d="M407.3,186.6v1.5h-2v2.2H404v-2.2h-2v-1.5h2v-2.2h1.3v2.2H407.3z"/>
	<path class="st1" d="M407.3,204.5v1.5h-2v2.2H404V206h-2v-1.5h2v-2.2h1.3v2.2H407.3z"/>
	<path class="st1" d="M407.3,222.4v1.5h-2v2.2H404v-2.2h-2v-1.5h2v-2.2h1.3v2.2H407.3z"/>
	<path class="st1" d="M407.3,240.3v1.5h-2v2.2H404v-2.2h-2v-1.5h2v-2.2h1.3v2.2H407.3z"/>
	<path class="st1" d="M407.3,258.2v1.5h-2v2.2H404v-2.2h-2v-1.5h2V256h1.3v2.2H407.3z"/>
	<path class="st1" d="M407.3,276.1v1.5h-2v2.2H404v-2.2h-2v-1.5h2v-2.2h1.3v2.2H407.3z"/>
	<path class="st1" d="M407.3,294v1.5h-2v2.2H404v-2.2h-2V294h2v-2.2h1.3v2.2H407.3z"/>
	<path class="st1" d="M407.3,311.9v1.5h-2v2.2H404v-2.2h-2v-1.5h2v-2.2h1.3v2.2H407.3z"/>
	<path class="st1" d="M407.3,329.8v1.5h-2v2.2H404v-2.2h-2v-1.5h2v-2.2h1.3v2.2H407.3z"/>
	<path class="st1" d="M407.3,347.7v1.5h-2v2.2H404v-2.2h-2v-1.5h2v-2.2h1.3v2.2H407.3z"/>
	<path class="st1" d="M407.3,365.6v1.5h-2v2.2H404v-2.2h-2v-1.5h2v-2.2h1.3v2.2H407.3z"/>
	<path class="st1" d="M407.3,383.5v1.5h-2v2.2H404V385h-2v-1.5h2v-2.2h1.3v2.2H407.3z"/>
	<path class="st1" d="M407.3,401.5v1.5h-2v2.2H404v-2.2h-2v-1.5h2v-2.2h1.3v2.2H407.3z"/>
	<path class="st1" d="M407.3,419.4v1.5h-2v2.2H404v-2.2h-2v-1.5h2v-2.2h1.3v2.2H407.3z"/>
	<path class="st1" d="M391.7,79.2v1.5h-2v2.2h-1.3v-2.2h-2v-1.5h2v-2.2h1.3v2.2H391.7z"/>
	<path class="st1" d="M391.7,97.1v1.5h-2v2.2h-1.3v-2.2h-2v-1.5h2v-2.2h1.3v2.2H391.7z"/>
	<path class="st1" d="M391.7,115v1.5h-2v2.2h-1.3v-2.2h-2V115h2v-2.2h1.3v2.2H391.7z"/>
	<path class="st1" d="M391.7,132.9v1.5h-2v2.2h-1.3v-2.2h-2v-1.5h2v-2.2h1.3v2.2H391.7z"/>
	<path class="st1" d="M391.7,150.8v1.5h-2v2.2h-1.3v-2.2h-2v-1.5h2v-2.2h1.3v2.2H391.7z"/>
	<path class="st1" d="M391.7,168.7v1.5h-2v2.2h-1.3v-2.2h-2v-1.5h2v-2.2h1.3v2.2H391.7z"/>
	<path class="st1" d="M391.7,186.6v1.5h-2v2.2h-1.3v-2.2h-2v-1.5h2v-2.2h1.3v2.2H391.7z"/>
	<path class="st1" d="M391.7,204.5v1.5h-2v2.2h-1.3V206h-2v-1.5h2v-2.2h1.3v2.2H391.7z"/>
	<path class="st1" d="M391.7,222.4v1.5h-2v2.2h-1.3v-2.2h-2v-1.5h2v-2.2h1.3v2.2H391.7z"/>
	<path class="st1" d="M391.7,240.3v1.5h-2v2.2h-1.3v-2.2h-2v-1.5h2v-2.2h1.3v2.2H391.7z"/>
	<path class="st1" d="M391.7,258.2v1.5h-2v2.2h-1.3v-2.2h-2v-1.5h2V256h1.3v2.2H391.7z"/>
	<path class="st1" d="M391.7,276.1v1.5h-2v2.2h-1.3v-2.2h-2v-1.5h2v-2.2h1.3v2.2H391.7z"/>
	<path class="st1" d="M391.7,294v1.5h-2v2.2h-1.3v-2.2h-2V294h2v-2.2h1.3v2.2H391.7z"/>
	<path class="st1" d="M391.7,311.9v1.5h-2v2.2h-1.3v-2.2h-2v-1.5h2v-2.2h1.3v2.2H391.7z"/>
	<path class="st1" d="M391.7,329.8v1.5h-2v2.2h-1.3v-2.2h-2v-1.5h2v-2.2h1.3v2.2H391.7z"/>
	<path class="st1" d="M391.7,347.7v1.5h-2v2.2h-1.3v-2.2h-2v-1.5h2v-2.2h1.3v2.2H391.7z"/>
	<path class="st1" d="M391.7,365.6v1.5h-2v2.2h-1.3v-2.2h-2v-1.5h2v-2.2h1.3v2.2H391.7z"/>
	<path class="st1" d="M391.7,383.5v1.5h-2v2.2h-1.3V385h-2v-1.5h2v-2.2h1.3v2.2H391.7z"/>
	<path class="st1" d="M391.7,401.5v1.5h-2v2.2h-1.3v-2.2h-2v-1.5h2v-2.2h1.3v2.2H391.7z"/>
	<path class="st1" d="M391.7,419.4v1.5h-2v2.2h-1.3v-2.2h-2v-1.5h2v-2.2h1.3v2.2H391.7z"/>
	<path class="st1" d="M376,79.2v1.5h-2v2.2h-1.3v-2.2h-2v-1.5h2v-2.2h1.3v2.2H376z"/>
	<path class="st1" d="M376,97.1v1.5h-2v2.2h-1.3v-2.2h-2v-1.5h2v-2.2h1.3v2.2H376z"/>
	<path class="st1" d="M376,115v1.5h-2v2.2h-1.3v-2.2h-2V115h2v-2.2h1.3v2.2H376z"/>
	<path class="st1" d="M376,132.9v1.5h-2v2.2h-1.3v-2.2h-2v-1.5h2v-2.2h1.3v2.2H376z"/>
	<path class="st1" d="M376,150.8v1.5h-2v2.2h-1.3v-2.2h-2v-1.5h2v-2.2h1.3v2.2H376z"/>
	<path class="st1" d="M376,168.7v1.5h-2v2.2h-1.3v-2.2h-2v-1.5h2v-2.2h1.3v2.2H376z"/>
	<path class="st1" d="M376,186.6v1.5h-2v2.2h-1.3v-2.2h-2v-1.5h2v-2.2h1.3v2.2H376z"/>
	<path class="st1" d="M376,204.5v1.5h-2v2.2h-1.3V206h-2v-1.5h2v-2.2h1.3v2.2H376z"/>
	<path class="st1" d="M376,222.4v1.5h-2v2.2h-1.3v-2.2h-2v-1.5h2v-2.2h1.3v2.2H376z"/>
	<path class="st1" d="M376,240.3v1.5h-2v2.2h-1.3v-2.2h-2v-1.5h2v-2.2h1.3v2.2H376z"/>
	<path class="st1" d="M376,258.2v1.5h-2v2.2h-1.3v-2.2h-2v-1.5h2V256h1.3v2.2H376z"/>
	<path class="st1" d="M376,276.1v1.5h-2v2.2h-1.3v-2.2h-2v-1.5h2v-2.2h1.3v2.2H376z"/>
	<path class="st1" d="M376,294v1.5h-2v2.2h-1.3v-2.2h-2V294h2v-2.2h1.3v2.2H376z"/>
	<path class="st1" d="M376,311.9v1.5h-2v2.2h-1.3v-2.2h-2v-1.5h2v-2.2h1.3v2.2H376z"/>
	<path class="st1" d="M376,329.8v1.5h-2v2.2h-1.3v-2.2h-2v-1.5h2v-2.2h1.3v2.2H376z"/>
	<path class="st1" d="M376,347.7v1.5h-2v2.2h-1.3v-2.2h-2v-1.5h2v-2.2h1.3v2.2H376z"/>
	<path class="st1" d="M376,365.6v1.5h-2v2.2h-1.3v-2.2h-2v-1.5h2v-2.2h1.3v2.2H376z"/>
	<path class="st1" d="M376,383.5v1.5h-2v2.2h-1.3V385h-2v-1.5h2v-2.2h1.3v2.2H376z"/>
	<path class="st1" d="M376,401.5v1.5h-2v2.2h-1.3v-2.2h-2v-1.5h2v-2.2h1.3v2.2H376z"/>
	<path class="st1" d="M376,419.4v1.5h-2v2.2h-1.3v-2.2h-2v-1.5h2v-2.2h1.3v2.2H376z"/>
	<path class="st1" d="M360.4,79.2v1.5h-2v2.2h-1.3v-2.2h-2v-1.5h2v-2.2h1.3v2.2H360.4z"/>
	<path class="st1" d="M360.4,97.1v1.5h-2v2.2h-1.3v-2.2h-2v-1.5h2v-2.2h1.3v2.2H360.4z"/>
	<path class="st1" d="M360.4,115v1.5h-2v2.2h-1.3v-2.2h-2V115h2v-2.2h1.3v2.2H360.4z"/>
	<path class="st1" d="M360.4,132.9v1.5h-2v2.2h-1.3v-2.2h-2v-1.5h2v-2.2h1.3v2.2H360.4z"/>
	<path class="st1" d="M360.4,150.8v1.5h-2v2.2h-1.3v-2.2h-2v-1.5h2v-2.2h1.3v2.2H360.4z"/>
	<path class="st1" d="M360.4,168.7v1.5h-2v2.2h-1.3v-2.2h-2v-1.5h2v-2.2h1.3v2.2H360.4z"/>
	<path class="st1" d="M360.4,186.6v1.5h-2v2.2h-1.3v-2.2h-2v-1.5h2v-2.2h1.3v2.2H360.4z"/>
	<path class="st1" d="M360.4,204.5v1.5h-2v2.2h-1.3V206h-2v-1.5h2v-2.2h1.3v2.2H360.4z"/>
	<path class="st1" d="M360.4,222.4v1.5h-2v2.2h-1.3v-2.2h-2v-1.5h2v-2.2h1.3v2.2H360.4z"/>
	<path class="st1" d="M360.4,240.3v1.5h-2v2.2h-1.3v-2.2h-2v-1.5h2v-2.2h1.3v2.2H360.4z"/>
	<path class="st1" d="M360.4,258.2v1.5h-2v2.2h-1.3v-2.2h-2v-1.5h2V256h1.3v2.2H360.4z"/>
	<path class="st1" d="M360.4,276.1v1.5h-2v2.2h-1.3v-2.2h-2v-1.5h2v-2.2h1.3v2.2H360.4z"/>
	<path class="st1" d="M360.4,294v1.5h-2v2.2h-1.3v-2.2h-2V294h2v-2.2h1.3v2.2H360.4z"/>
	<path class="st1" d="M360.4,311.9v1.5h-2v2.2h-1.3v-2.2h-2v-1.5h2v-2.2h1.3v2.2H360.4z"/>
	<path class="st1" d="M360.4,329.8v1.5h-2v2.2h-1.3v-2.2h-2v-1.5h2v-2.2h1.3v2.2H360.4z"/>
	<path class="st1" d="M360.4,347.7v1.5h-2v2.2h-1.3v-2.2h-2v-1.5h2v-2.2h1.3v2.2H360.4z"/>
	<path class="st1" d="M360.4,365.6v1.5h-2v2.2h-1.3v-2.2h-2v-1.5h2v-2.2h1.3v2.2H360.4z"/>
	<path class="st1" d="M360.4,383.5v1.5h-2v2.2h-1.3V385h-2v-1.5h2v-2.2h1.3v2.2H360.4z"/>
	<path class="st1" d="M360.4,401.5v1.5h-2v2.2h-1.3v-2.2h-2v-1.5h2v-2.2h1.3v2.2H360.4z"/>
	<path class="st1" d="M360.4,419.4v1.5h-2v2.2h-1.3v-2.2h-2v-1.5h2v-2.2h1.3v2.2H360.4z"/>
	<path class="st1" d="M344.8,79.2v1.5h-2v2.2h-1.3v-2.2h-2v-1.5h2v-2.2h1.3v2.2H344.8z"/>
	<path class="st1" d="M344.8,97.1v1.5h-2v2.2h-1.3v-2.2h-2v-1.5h2v-2.2h1.3v2.2H344.8z"/>
	<path class="st1" d="M344.8,115v1.5h-2v2.2h-1.3v-2.2h-2V115h2v-2.2h1.3v2.2H344.8z"/>
	<path class="st1" d="M344.8,132.9v1.5h-2v2.2h-1.3v-2.2h-2v-1.5h2v-2.2h1.3v2.2H344.8z"/>
	<path class="st1" d="M344.8,150.8v1.5h-2v2.2h-1.3v-2.2h-2v-1.5h2v-2.2h1.3v2.2H344.8z"/>
	<path class="st1" d="M344.8,168.7v1.5h-2v2.2h-1.3v-2.2h-2v-1.5h2v-2.2h1.3v2.2H344.8z"/>
	<path class="st1" d="M344.8,186.6v1.5h-2v2.2h-1.3v-2.2h-2v-1.5h2v-2.2h1.3v2.2H344.8z"/>
	<path class="st1" d="M344.8,204.5v1.5h-2v2.2h-1.3V206h-2v-1.5h2v-2.2h1.3v2.2H344.8z"/>
	<path class="st1" d="M344.8,222.4v1.5h-2v2.2h-1.3v-2.2h-2v-1.5h2v-2.2h1.3v2.2H344.8z"/>
	<path class="st1" d="M344.8,240.3v1.5h-2v2.2h-1.3v-2.2h-2v-1.5h2v-2.2h1.3v2.2H344.8z"/>
	<path class="st1" d="M344.8,258.2v1.5h-2v2.2h-1.3v-2.2h-2v-1.5h2V256h1.3v2.2H344.8z"/>
	<path class="st1" d="M344.8,276.1v1.5h-2v2.2h-1.3v-2.2h-2v-1.5h2v-2.2h1.3v2.2H344.8z"/>
	<path class="st1" d="M344.8,294v1.5h-2v2.2h-1.3v-2.2h-2V294h2v-2.2h1.3v2.2H344.8z"/>
	<path class="st1" d="M344.8,311.9v1.5h-2v2.2h-1.3v-2.2h-2v-1.5h2v-2.2h1.3v2.2H344.8z"/>
	<path class="st1" d="M344.8,329.8v1.5h-2v2.2h-1.3v-2.2h-2v-1.5h2v-2.2h1.3v2.2H344.8z"/>
	<path class="st1" d="M344.8,347.7v1.5h-2v2.2h-1.3v-2.2h-2v-1.5h2v-2.2h1.3v2.2H344.8z"/>
	<path class="st1" d="M344.8,365.6v1.5h-2v2.2h-1.3v-2.2h-2v-1.5h2v-2.2h1.3v2.2H344.8z"/>
	<path class="st1" d="M344.8,383.5v1.5h-2v2.2h-1.3V385h-2v-1.5h2v-2.2h1.3v2.2H344.8z"/>
	<path class="st1" d="M344.8,401.5v1.5h-2v2.2h-1.3v-2.2h-2v-1.5h2v-2.2h1.3v2.2H344.8z"/>
	<path class="st1" d="M344.8,419.4v1.5h-2v2.2h-1.3v-2.2h-2v-1.5h2v-2.2h1.3v2.2H344.8z"/>
	<path class="st1" d="M329.2,79.2v1.5h-2v2.2h-1.3v-2.2h-2v-1.5h2v-2.2h1.3v2.2H329.2z"/>
	<path class="st1" d="M329.2,97.1v1.5h-2v2.2h-1.3v-2.2h-2v-1.5h2v-2.2h1.3v2.2H329.2z"/>
	<path class="st1" d="M329.2,115v1.5h-2v2.2h-1.3v-2.2h-2V115h2v-2.2h1.3v2.2H329.2z"/>
	<path class="st1" d="M329.2,132.9v1.5h-2v2.2h-1.3v-2.2h-2v-1.5h2v-2.2h1.3v2.2H329.2z"/>
	<path class="st1" d="M329.2,150.8v1.5h-2v2.2h-1.3v-2.2h-2v-1.5h2v-2.2h1.3v2.2H329.2z"/>
	<path class="st1" d="M329.2,168.7v1.5h-2v2.2h-1.3v-2.2h-2v-1.5h2v-2.2h1.3v2.2H329.2z"/>
	<path class="st1" d="M329.2,186.6v1.5h-2v2.2h-1.3v-2.2h-2v-1.5h2v-2.2h1.3v2.2H329.2z"/>
	<path class="st1" d="M329.2,204.5v1.5h-2v2.2h-1.3V206h-2v-1.5h2v-2.2h1.3v2.2H329.2z"/>
	<path class="st1" d="M329.2,222.4v1.5h-2v2.2h-1.3v-2.2h-2v-1.5h2v-2.2h1.3v2.2H329.2z"/>
	<path class="st1" d="M329.2,240.3v1.5h-2v2.2h-1.3v-2.2h-2v-1.5h2v-2.2h1.3v2.2H329.2z"/>
	<path class="st1" d="M329.2,258.2v1.5h-2v2.2h-1.3v-2.2h-2v-1.5h2V256h1.3v2.2H329.2z"/>
	<path class="st1" d="M329.2,276.1v1.5h-2v2.2h-1.3v-2.2h-2v-1.5h2v-2.2h1.3v2.2H329.2z"/>
	<path class="st1" d="M329.2,294v1.5h-2v2.2h-1.3v-2.2h-2V294h2v-2.2h1.3v2.2H329.2z"/>
	<path class="st1" d="M329.2,311.9v1.5h-2v2.2h-1.3v-2.2h-2v-1.5h2v-2.2h1.3v2.2H329.2z"/>
	<path class="st1" d="M329.2,329.8v1.5h-2v2.2h-1.3v-2.2h-2v-1.5h2v-2.2h1.3v2.2H329.2z"/>
	<path class="st1" d="M329.2,347.7v1.5h-2v2.2h-1.3v-2.2h-2v-1.5h2v-2.2h1.3v2.2H329.2z"/>
	<path class="st1" d="M329.2,365.6v1.5h-2v2.2h-1.3v-2.2h-2v-1.5h2v-2.2h1.3v2.2H329.2z"/>
	<path class="st1" d="M329.2,383.5v1.5h-2v2.2h-1.3V385h-2v-1.5h2v-2.2h1.3v2.2H329.2z"/>
	<path class="st1" d="M329.2,401.5v1.5h-2v2.2h-1.3v-2.2h-2v-1.5h2v-2.2h1.3v2.2H329.2z"/>
	<path class="st1" d="M329.2,419.4v1.5h-2v2.2h-1.3v-2.2h-2v-1.5h2v-2.2h1.3v2.2H329.2z"/>
	<path class="st1" d="M313.6,79.2v1.5h-2v2.2h-1.3v-2.2h-2v-1.5h2v-2.2h1.3v2.2H313.6z"/>
	<path class="st1" d="M313.6,97.1v1.5h-2v2.2h-1.3v-2.2h-2v-1.5h2v-2.2h1.3v2.2H313.6z"/>
	<path class="st1" d="M313.6,115v1.5h-2v2.2h-1.3v-2.2h-2V115h2v-2.2h1.3v2.2H313.6z"/>
	<path class="st1" d="M313.6,132.9v1.5h-2v2.2h-1.3v-2.2h-2v-1.5h2v-2.2h1.3v2.2H313.6z"/>
	<path class="st1" d="M313.6,150.8v1.5h-2v2.2h-1.3v-2.2h-2v-1.5h2v-2.2h1.3v2.2H313.6z"/>
	<path class="st1" d="M313.6,168.7v1.5h-2v2.2h-1.3v-2.2h-2v-1.5h2v-2.2h1.3v2.2H313.6z"/>
	<path class="st1" d="M313.6,186.6v1.5h-2v2.2h-1.3v-2.2h-2v-1.5h2v-2.2h1.3v2.2H313.6z"/>
	<path class="st1" d="M313.6,204.5v1.5h-2v2.2h-1.3V206h-2v-1.5h2v-2.2h1.3v2.2H313.6z"/>
	<path class="st1" d="M313.6,222.4v1.5h-2v2.2h-1.3v-2.2h-2v-1.5h2v-2.2h1.3v2.2H313.6z"/>
	<path class="st1" d="M313.6,240.3v1.5h-2v2.2h-1.3v-2.2h-2v-1.5h2v-2.2h1.3v2.2H313.6z"/>
	<path class="st1" d="M313.6,258.2v1.5h-2v2.2h-1.3v-2.2h-2v-1.5h2V256h1.3v2.2H313.6z"/>
	<path class="st1" d="M313.6,276.1v1.5h-2v2.2h-1.3v-2.2h-2v-1.5h2v-2.2h1.3v2.2H313.6z"/>
	<path class="st1" d="M313.6,294v1.5h-2v2.2h-1.3v-2.2h-2V294h2v-2.2h1.3v2.2H313.6z"/>
	<path class="st1" d="M313.6,311.9v1.5h-2v2.2h-1.3v-2.2h-2v-1.5h2v-2.2h1.3v2.2H313.6z"/>
	<path class="st1" d="M313.6,329.8v1.5h-2v2.2h-1.3v-2.2h-2v-1.5h2v-2.2h1.3v2.2H313.6z"/>
	<path class="st1" d="M313.6,347.7v1.5h-2v2.2h-1.3v-2.2h-2v-1.5h2v-2.2h1.3v2.2H313.6z"/>
	<path class="st1" d="M313.6,365.6v1.5h-2v2.2h-1.3v-2.2h-2v-1.5h2v-2.2h1.3v2.2H313.6z"/>
	<path class="st1" d="M313.6,383.5v1.5h-2v2.2h-1.3V385h-2v-1.5h2v-2.2h1.3v2.2H313.6z"/>
	<path class="st1" d="M313.6,401.5v1.5h-2v2.2h-1.3v-2.2h-2v-1.5h2v-2.2h1.3v2.2H313.6z"/>
	<path class="st1" d="M313.6,419.4v1.5h-2v2.2h-1.3v-2.2h-2v-1.5h2v-2.2h1.3v2.2H313.6z"/>
	<path class="st1" d="M297.9,79.2v1.5h-2v2.2h-1.3v-2.2h-2v-1.5h2v-2.2h1.3v2.2H297.9z"/>
	<path class="st1" d="M297.9,97.1v1.5h-2v2.2h-1.3v-2.2h-2v-1.5h2v-2.2h1.3v2.2H297.9z"/>
	<path class="st1" d="M297.9,115v1.5h-2v2.2h-1.3v-2.2h-2V115h2v-2.2h1.3v2.2H297.9z"/>
	<path class="st1" d="M297.9,132.9v1.5h-2v2.2h-1.3v-2.2h-2v-1.5h2v-2.2h1.3v2.2H297.9z"/>
	<path class="st1" d="M297.9,150.8v1.5h-2v2.2h-1.3v-2.2h-2v-1.5h2v-2.2h1.3v2.2H297.9z"/>
	<path class="st1" d="M297.9,168.7v1.5h-2v2.2h-1.3v-2.2h-2v-1.5h2v-2.2h1.3v2.2H297.9z"/>
	<path class="st1" d="M297.9,186.6v1.5h-2v2.2h-1.3v-2.2h-2v-1.5h2v-2.2h1.3v2.2H297.9z"/>
	<path class="st1" d="M297.9,204.5v1.5h-2v2.2h-1.3V206h-2v-1.5h2v-2.2h1.3v2.2H297.9z"/>
	<path class="st1" d="M297.9,222.4v1.5h-2v2.2h-1.3v-2.2h-2v-1.5h2v-2.2h1.3v2.2H297.9z"/>
	<path class="st1" d="M297.9,240.3v1.5h-2v2.2h-1.3v-2.2h-2v-1.5h2v-2.2h1.3v2.2H297.9z"/>
	<path class="st1" d="M297.9,258.2v1.5h-2v2.2h-1.3v-2.2h-2v-1.5h2V256h1.3v2.2H297.9z"/>
	<path class="st1" d="M297.9,276.1v1.5h-2v2.2h-1.3v-2.2h-2v-1.5h2v-2.2h1.3v2.2H297.9z"/>
	<path class="st1" d="M297.9,294v1.5h-2v2.2h-1.3v-2.2h-2V294h2v-2.2h1.3v2.2H297.9z"/>
	<path class="st1" d="M297.9,311.9v1.5h-2v2.2h-1.3v-2.2h-2v-1.5h2v-2.2h1.3v2.2H297.9z"/>
	<path class="st1" d="M297.9,329.8v1.5h-2v2.2h-1.3v-2.2h-2v-1.5h2v-2.2h1.3v2.2H297.9z"/>
	<path class="st1" d="M297.9,347.7v1.5h-2v2.2h-1.3v-2.2h-2v-1.5h2v-2.2h1.3v2.2H297.9z"/>
	<path class="st1" d="M297.9,365.6v1.5h-2v2.2h-1.3v-2.2h-2v-1.5h2v-2.2h1.3v2.2H297.9z"/>
	<path class="st1" d="M297.9,383.5v1.5h-2v2.2h-1.3V385h-2v-1.5h2v-2.2h1.3v2.2H297.9z"/>
	<path class="st1" d="M297.9,401.5v1.5h-2v2.2h-1.3v-2.2h-2v-1.5h2v-2.2h1.3v2.2H297.9z"/>
	<path class="st1" d="M297.9,419.4v1.5h-2v2.2h-1.3v-2.2h-2v-1.5h2v-2.2h1.3v2.2H297.9z"/>
	<path class="st1" d="M282.3,79.2v1.5h-2v2.2h-1.3v-2.2h-2v-1.5h2v-2.2h1.3v2.2H282.3z"/>
	<path class="st1" d="M282.3,97.1v1.5h-2v2.2h-1.3v-2.2h-2v-1.5h2v-2.2h1.3v2.2H282.3z"/>
	<path class="st1" d="M282.3,115v1.5h-2v2.2h-1.3v-2.2h-2V115h2v-2.2h1.3v2.2H282.3z"/>
	<path class="st1" d="M282.3,132.9v1.5h-2v2.2h-1.3v-2.2h-2v-1.5h2v-2.2h1.3v2.2H282.3z"/>
	<path class="st1" d="M282.3,150.8v1.5h-2v2.2h-1.3v-2.2h-2v-1.5h2v-2.2h1.3v2.2H282.3z"/>
	<path class="st1" d="M282.3,168.7v1.5h-2v2.2h-1.3v-2.2h-2v-1.5h2v-2.2h1.3v2.2H282.3z"/>
	<path class="st1" d="M282.3,186.6v1.5h-2v2.2h-1.3v-2.2h-2v-1.5h2v-2.2h1.3v2.2H282.3z"/>
	<path class="st1" d="M282.3,204.5v1.5h-2v2.2h-1.3V206h-2v-1.5h2v-2.2h1.3v2.2H282.3z"/>
	<path class="st1" d="M282.3,222.4v1.5h-2v2.2h-1.3v-2.2h-2v-1.5h2v-2.2h1.3v2.2H282.3z"/>
	<path class="st1" d="M282.3,240.3v1.5h-2v2.2h-1.3v-2.2h-2v-1.5h2v-2.2h1.3v2.2H282.3z"/>
	<path class="st1" d="M282.3,258.2v1.5h-2v2.2h-1.3v-2.2h-2v-1.5h2V256h1.3v2.2H282.3z"/>
	<path class="st1" d="M282.3,276.1v1.5h-2v2.2h-1.3v-2.2h-2v-1.5h2v-2.2h1.3v2.2H282.3z"/>
	<path class="st1" d="M282.3,294v1.5h-2v2.2h-1.3v-2.2h-2V294h2v-2.2h1.3v2.2H282.3z"/>
	<path class="st1" d="M282.3,311.9v1.5h-2v2.2h-1.3v-2.2h-2v-1.5h2v-2.2h1.3v2.2H282.3z"/>
	<path class="st1" d="M282.3,329.8v1.5h-2v2.2h-1.3v-2.2h-2v-1.5h2v-2.2h1.3v2.2H282.3z"/>
	<path class="st1" d="M282.3,347.7v1.5h-2v2.2h-1.3v-2.2h-2v-1.5h2v-2.2h1.3v2.2H282.3z"/>
	<path class="st1" d="M282.3,365.6v1.5h-2v2.2h-1.3v-2.2h-2v-1.5h2v-2.2h1.3v2.2H282.3z"/>
	<path class="st1" d="M282.3,383.5v1.5h-2v2.2h-1.3V385h-2v-1.5h2v-2.2h1.3v2.2H282.3z"/>
	<path class="st1" d="M282.3,401.5v1.5h-2v2.2h-1.3v-2.2h-2v-1.5h2v-2.2h1.3v2.2H282.3z"/>
	<path class="st1" d="M282.3,419.4v1.5h-2v2.2h-1.3v-2.2h-2v-1.5h2v-2.2h1.3v2.2H282.3z"/>
	<path class="st1" d="M266.7,79.2v1.5h-2v2.2h-1.3v-2.2h-2v-1.5h2v-2.2h1.3v2.2H266.7z"/>
	<path class="st1" d="M266.7,97.1v1.5h-2v2.2h-1.3v-2.2h-2v-1.5h2v-2.2h1.3v2.2H266.7z"/>
	<path class="st1" d="M266.7,115v1.5h-2v2.2h-1.3v-2.2h-2V115h2v-2.2h1.3v2.2H266.7z"/>
	<path class="st1" d="M266.7,132.9v1.5h-2v2.2h-1.3v-2.2h-2v-1.5h2v-2.2h1.3v2.2H266.7z"/>
	<path class="st1" d="M266.7,150.8v1.5h-2v2.2h-1.3v-2.2h-2v-1.5h2v-2.2h1.3v2.2H266.7z"/>
	<path class="st1" d="M266.7,168.7v1.5h-2v2.2h-1.3v-2.2h-2v-1.5h2v-2.2h1.3v2.2H266.7z"/>
	<path class="st1" d="M266.7,186.6v1.5h-2v2.2h-1.3v-2.2h-2v-1.5h2v-2.2h1.3v2.2H266.7z"/>
	<path class="st1" d="M266.7,204.5v1.5h-2v2.2h-1.3V206h-2v-1.5h2v-2.2h1.3v2.2H266.7z"/>
	<path class="st1" d="M266.7,222.4v1.5h-2v2.2h-1.3v-2.2h-2v-1.5h2v-2.2h1.3v2.2H266.7z"/>
	<path class="st1" d="M266.7,240.3v1.5h-2v2.2h-1.3v-2.2h-2v-1.5h2v-2.2h1.3v2.2H266.7z"/>
	<path class="st1" d="M266.7,258.2v1.5h-2v2.2h-1.3v-2.2h-2v-1.5h2V256h1.3v2.2H266.7z"/>
	<path class="st1" d="M266.7,276.1v1.5h-2v2.2h-1.3v-2.2h-2v-1.5h2v-2.2h1.3v2.2H266.7z"/>
	<path class="st1" d="M266.7,294v1.5h-2v2.2h-1.3v-2.2h-2V294h2v-2.2h1.3v2.2H266.7z"/>
	<path class="st1" d="M266.7,311.9v1.5h-2v2.2h-1.3v-2.2h-2v-1.5h2v-2.2h1.3v2.2H266.7z"/>
	<path class="st1" d="M266.7,329.8v1.5h-2v2.2h-1.3v-2.2h-2v-1.5h2v-2.2h1.3v2.2H266.7z"/>
	<path class="st1" d="M266.7,347.7v1.5h-2v2.2h-1.3v-2.2h-2v-1.5h2v-2.2h1.3v2.2H266.7z"/>
	<path class="st1" d="M266.7,365.6v1.5h-2v2.2h-1.3v-2.2h-2v-1.5h2v-2.2h1.3v2.2H266.7z"/>
	<path class="st1" d="M266.7,383.5v1.5h-2v2.2h-1.3V385h-2v-1.5h2v-2.2h1.3v2.2H266.7z"/>
	<path class="st1" d="M266.7,401.5v1.5h-2v2.2h-1.3v-2.2h-2v-1.5h2v-2.2h1.3v2.2H266.7z"/>
	<path class="st1" d="M266.7,419.4v1.5h-2v2.2h-1.3v-2.2h-2v-1.5h2v-2.2h1.3v2.2H266.7z"/>
	<path class="st1" d="M251.1,79.2v1.5h-2v2.2h-1.3v-2.2h-2v-1.5h2v-2.2h1.3v2.2H251.1z"/>
	<path class="st1" d="M251.1,97.1v1.5h-2v2.2h-1.3v-2.2h-2v-1.5h2v-2.2h1.3v2.2H251.1z"/>
	<path class="st1" d="M251.1,115v1.5h-2v2.2h-1.3v-2.2h-2V115h2v-2.2h1.3v2.2H251.1z"/>
	<path class="st1" d="M251.1,132.9v1.5h-2v2.2h-1.3v-2.2h-2v-1.5h2v-2.2h1.3v2.2H251.1z"/>
	<path class="st1" d="M251.1,150.8v1.5h-2v2.2h-1.3v-2.2h-2v-1.5h2v-2.2h1.3v2.2H251.1z"/>
	<path class="st1" d="M251.1,168.7v1.5h-2v2.2h-1.3v-2.2h-2v-1.5h2v-2.2h1.3v2.2H251.1z"/>
	<path class="st1" d="M251.1,186.6v1.5h-2v2.2h-1.3v-2.2h-2v-1.5h2v-2.2h1.3v2.2H251.1z"/>
	<path class="st1" d="M251.1,204.5v1.5h-2v2.2h-1.3V206h-2v-1.5h2v-2.2h1.3v2.2H251.1z"/>
	<path class="st1" d="M251.1,222.4v1.5h-2v2.2h-1.3v-2.2h-2v-1.5h2v-2.2h1.3v2.2H251.1z"/>
	<path class="st1" d="M251.1,240.3v1.5h-2v2.2h-1.3v-2.2h-2v-1.5h2v-2.2h1.3v2.2H251.1z"/>
	<path class="st1" d="M251.1,258.2v1.5h-2v2.2h-1.3v-2.2h-2v-1.5h2V256h1.3v2.2H251.1z"/>
	<path class="st1" d="M251.1,276.1v1.5h-2v2.2h-1.3v-2.2h-2v-1.5h2v-2.2h1.3v2.2H251.1z"/>
	<path class="st1" d="M251.1,294v1.5h-2v2.2h-1.3v-2.2h-2V294h2v-2.2h1.3v2.2H251.1z"/>
	<path class="st1" d="M251.1,311.9v1.5h-2v2.2h-1.3v-2.2h-2v-1.5h2v-2.2h1.3v2.2H251.1z"/>
	<path class="st1" d="M251.1,329.8v1.5h-2v2.2h-1.3v-2.2h-2v-1.5h2v-2.2h1.3v2.2H251.1z"/>
	<path class="st1" d="M251.1,347.7v1.5h-2v2.2h-1.3v-2.2h-2v-1.5h2v-2.2h1.3v2.2H251.1z"/>
	<path class="st1" d="M251.1,365.6v1.5h-2v2.2h-1.3v-2.2h-2v-1.5h2v-2.2h1.3v2.2H251.1z"/>
	<path class="st1" d="M251.1,383.5v1.5h-2v2.2h-1.3V385h-2v-1.5h2v-2.2h1.3v2.2H251.1z"/>
	<path class="st1" d="M251.1,401.5v1.5h-2v2.2h-1.3v-2.2h-2v-1.5h2v-2.2h1.3v2.2H251.1z"/>
	<path class="st1" d="M251.1,419.4v1.5h-2v2.2h-1.3v-2.2h-2v-1.5h2v-2.2h1.3v2.2H251.1z"/>
	<path class="st1" d="M235.4,79.2v1.5h-2v2.2h-1.3v-2.2h-2v-1.5h2v-2.2h1.3v2.2H235.4z"/>
	<path class="st1" d="M235.4,97.1v1.5h-2v2.2h-1.3v-2.2h-2v-1.5h2v-2.2h1.3v2.2H235.4z"/>
	<path class="st1" d="M235.4,115v1.5h-2v2.2h-1.3v-2.2h-2V115h2v-2.2h1.3v2.2H235.4z"/>
	<path class="st1" d="M235.4,132.9v1.5h-2v2.2h-1.3v-2.2h-2v-1.5h2v-2.2h1.3v2.2H235.4z"/>
	<path class="st1" d="M235.4,150.8v1.5h-2v2.2h-1.3v-2.2h-2v-1.5h2v-2.2h1.3v2.2H235.4z"/>
	<path class="st1" d="M235.4,168.7v1.5h-2v2.2h-1.3v-2.2h-2v-1.5h2v-2.2h1.3v2.2H235.4z"/>
	<path class="st1" d="M235.4,186.6v1.5h-2v2.2h-1.3v-2.2h-2v-1.5h2v-2.2h1.3v2.2H235.4z"/>
	<path class="st1" d="M235.4,204.5v1.5h-2v2.2h-1.3V206h-2v-1.5h2v-2.2h1.3v2.2H235.4z"/>
	<path class="st1" d="M235.4,222.4v1.5h-2v2.2h-1.3v-2.2h-2v-1.5h2v-2.2h1.3v2.2H235.4z"/>
	<path class="st1" d="M235.4,240.3v1.5h-2v2.2h-1.3v-2.2h-2v-1.5h2v-2.2h1.3v2.2H235.4z"/>
	<path class="st1" d="M235.4,258.2v1.5h-2v2.2h-1.3v-2.2h-2v-1.5h2V256h1.3v2.2H235.4z"/>
	<path class="st1" d="M235.4,276.1v1.5h-2v2.2h-1.3v-2.2h-2v-1.5h2v-2.2h1.3v2.2H235.4z"/>
	<path class="st1" d="M235.4,294v1.5h-2v2.2h-1.3v-2.2h-2V294h2v-2.2h1.3v2.2H235.4z"/>
	<path class="st1" d="M235.4,311.9v1.5h-2v2.2h-1.3v-2.2h-2v-1.5h2v-2.2h1.3v2.2H235.4z"/>
	<path class="st1" d="M235.4,329.8v1.5h-2v2.2h-1.3v-2.2h-2v-1.5h2v-2.2h1.3v2.2H235.4z"/>
	<path class="st1" d="M235.4,347.7v1.5h-2v2.2h-1.3v-2.2h-2v-1.5h2v-2.2h1.3v2.2H235.4z"/>
	<path class="st1" d="M235.4,365.6v1.5h-2v2.2h-1.3v-2.2h-2v-1.5h2v-2.2h1.3v2.2H235.4z"/>
	<path class="st1" d="M235.4,383.5v1.5h-2v2.2h-1.3V385h-2v-1.5h2v-2.2h1.3v2.2H235.4z"/>
	<path class="st1" d="M235.4,401.5v1.5h-2v2.2h-1.3v-2.2h-2v-1.5h2v-2.2h1.3v2.2H235.4z"/>
	<path class="st1" d="M235.4,419.4v1.5h-2v2.2h-1.3v-2.2h-2v-1.5h2v-2.2h1.3v2.2H235.4z"/>
	<path class="st1" d="M219.8,79.2v1.5h-2v2.2h-1.3v-2.2h-2v-1.5h2v-2.2h1.3v2.2H219.8z"/>
	<path class="st1" d="M219.8,97.1v1.5h-2v2.2h-1.3v-2.2h-2v-1.5h2v-2.2h1.3v2.2H219.8z"/>
	<path class="st1" d="M219.8,115v1.5h-2v2.2h-1.3v-2.2h-2V115h2v-2.2h1.3v2.2H219.8z"/>
	<path class="st1" d="M219.8,132.9v1.5h-2v2.2h-1.3v-2.2h-2v-1.5h2v-2.2h1.3v2.2H219.8z"/>
	<path class="st1" d="M219.8,150.8v1.5h-2v2.2h-1.3v-2.2h-2v-1.5h2v-2.2h1.3v2.2H219.8z"/>
	<path class="st1" d="M219.8,168.7v1.5h-2v2.2h-1.3v-2.2h-2v-1.5h2v-2.2h1.3v2.2H219.8z"/>
	<path class="st1" d="M219.8,186.6v1.5h-2v2.2h-1.3v-2.2h-2v-1.5h2v-2.2h1.3v2.2H219.8z"/>
	<path class="st1" d="M219.8,204.5v1.5h-2v2.2h-1.3V206h-2v-1.5h2v-2.2h1.3v2.2H219.8z"/>
	<path class="st1" d="M219.8,222.4v1.5h-2v2.2h-1.3v-2.2h-2v-1.5h2v-2.2h1.3v2.2H219.8z"/>
	<path class="st1" d="M219.8,240.3v1.5h-2v2.2h-1.3v-2.2h-2v-1.5h2v-2.2h1.3v2.2H219.8z"/>
	<path class="st1" d="M219.8,258.2v1.5h-2v2.2h-1.3v-2.2h-2v-1.5h2V256h1.3v2.2H219.8z"/>
	<path class="st1" d="M219.8,276.1v1.5h-2v2.2h-1.3v-2.2h-2v-1.5h2v-2.2h1.3v2.2H219.8z"/>
	<path class="st1" d="M219.8,294v1.5h-2v2.2h-1.3v-2.2h-2V294h2v-2.2h1.3v2.2H219.8z"/>
	<path class="st1" d="M219.8,311.9v1.5h-2v2.2h-1.3v-2.2h-2v-1.5h2v-2.2h1.3v2.2H219.8z"/>
	<path class="st1" d="M219.8,329.8v1.5h-2v2.2h-1.3v-2.2h-2v-1.5h2v-2.2h1.3v2.2H219.8z"/>
	<path class="st1" d="M219.8,347.7v1.5h-2v2.2h-1.3v-2.2h-2v-1.5h2v-2.2h1.3v2.2H219.8z"/>
	<path class="st1" d="M219.8,365.6v1.5h-2v2.2h-1.3v-2.2h-2v-1.5h2v-2.2h1.3v2.2H219.8z"/>
	<path class="st1" d="M219.8,383.5v1.5h-2v2.2h-1.3V385h-2v-1.5h2v-2.2h1.3v2.2H219.8z"/>
	<path class="st1" d="M219.8,401.5v1.5h-2v2.2h-1.3v-2.2h-2v-1.5h2v-2.2h1.3v2.2H219.8z"/>
	<path class="st1" d="M219.8,419.4v1.5h-2v2.2h-1.3v-2.2h-2v-1.5h2v-2.2h1.3v2.2H219.8z"/>
	<path class="st1" d="M204.2,79.2v1.5h-2v2.2H201v-2.2h-2v-1.5h2v-2.2h1.3v2.2H204.2z"/>
	<path class="st1" d="M204.2,97.1v1.5h-2v2.2H201v-2.2h-2v-1.5h2v-2.2h1.3v2.2H204.2z"/>
	<path class="st1" d="M204.2,115v1.5h-2v2.2H201v-2.2h-2V115h2v-2.2h1.3v2.2H204.2z"/>
	<path class="st1" d="M204.2,132.9v1.5h-2v2.2H201v-2.2h-2v-1.5h2v-2.2h1.3v2.2H204.2z"/>
	<path class="st1" d="M204.2,150.8v1.5h-2v2.2H201v-2.2h-2v-1.5h2v-2.2h1.3v2.2H204.2z"/>
	<path class="st1" d="M204.2,168.7v1.5h-2v2.2H201v-2.2h-2v-1.5h2v-2.2h1.3v2.2H204.2z"/>
	<path class="st1" d="M204.2,186.6v1.5h-2v2.2H201v-2.2h-2v-1.5h2v-2.2h1.3v2.2H204.2z"/>
	<path class="st1" d="M204.2,204.5v1.5h-2v2.2H201V206h-2v-1.5h2v-2.2h1.3v2.2H204.2z"/>
	<path class="st1" d="M204.2,222.4v1.5h-2v2.2H201v-2.2h-2v-1.5h2v-2.2h1.3v2.2H204.2z"/>
	<path class="st1" d="M204.2,240.3v1.5h-2v2.2H201v-2.2h-2v-1.5h2v-2.2h1.3v2.2H204.2z"/>
	<path class="st1" d="M204.2,258.2v1.5h-2v2.2H201v-2.2h-2v-1.5h2V256h1.3v2.2H204.2z"/>
	<path class="st1" d="M204.2,276.1v1.5h-2v2.2H201v-2.2h-2v-1.5h2v-2.2h1.3v2.2H204.2z"/>
	<path class="st1" d="M204.2,294v1.5h-2v2.2H201v-2.2h-2V294h2v-2.2h1.3v2.2H204.2z"/>
	<path class="st1" d="M204.2,311.9v1.5h-2v2.2H201v-2.2h-2v-1.5h2v-2.2h1.3v2.2H204.2z"/>
	<path class="st1" d="M204.2,329.8v1.5h-2v2.2H201v-2.2h-2v-1.5h2v-2.2h1.3v2.2H204.2z"/>
	<path class="st1" d="M204.2,347.7v1.5h-2v2.2H201v-2.2h-2v-1.5h2v-2.2h1.3v2.2H204.2z"/>
	<path class="st1" d="M204.2,365.6v1.5h-2v2.2H201v-2.2h-2v-1.5h2v-2.2h1.3v2.2H204.2z"/>
	<path class="st1" d="M204.2,383.5v1.5h-2v2.2H201V385h-2v-1.5h2v-2.2h1.3v2.2H204.2z"/>
	<path class="st1" d="M204.2,401.5v1.5h-2v2.2H201v-2.2h-2v-1.5h2v-2.2h1.3v2.2H204.2z"/>
	<path class="st1" d="M204.2,419.4v1.5h-2v2.2H201v-2.2h-2v-1.5h2v-2.2h1.3v2.2H204.2z"/>
</g>
<g>
	<g>
		<g class="st2">
			<g>
				<g>
					<polygon class="st3" points="279.3,217.3 264.7,219.2 402.7,194.1 417.2,186.5 					"/>
				</g>
			</g>
			<g>
				<g>
					<linearGradient id="SVGID_1_" gradientUnits="userSpaceOnUse" x1="361.2401" y1="372.9694" x2="358.0682" y2="246.0937">
						<stop  offset="3.725983e-07" style="stop-color:#6252A1"/>
						<stop  offset="0.5411" style="stop-color:#7654A1"/>
						<stop  offset="1" style="stop-color:#8255A1"/>
					</linearGradient>
					<polygon class="st4" points="454.1,378.7 439.5,380.7 264.7,219.2 279.3,217.3 					"/>
				</g>
			</g>
			<g>
				<g>
					<linearGradient id="SVGID_2_" gradientUnits="userSpaceOnUse" x1="503.1915" y1="380.4433" x2="358.3175" y2="213.5232">
						<stop  offset="1.419422e-07" style="stop-color:#BF8ABD"/>
						<stop  offset="0.1856" style="stop-color:#9E77B4"/>
						<stop  offset="0.3846" style="stop-color:#8367AC"/>
						<stop  offset="0.5862" style="stop-color:#705CA6"/>
						<stop  offset="0.7902" style="stop-color:#6455A3"/>
						<stop  offset="1" style="stop-color:#6053A2"/>
					</linearGradient>
					<polygon class="st5" points="279.3,217.3 417.2,186.5 454.1,378.7 					"/>
				</g>
			</g>
		</g>
	</g>
	<g>
		<g class="st2">
			<g>
				<g>
					<linearGradient id="SVGID_3_" gradientUnits="userSpaceOnUse" x1="246.4073" y1="94.4961" x2="289.7565" y2="303.841">
						<stop  offset="3.721641e-03" style="stop-color:#344FA1"/>
						<stop  offset="0.1862" style="stop-color:#494EA0"/>
						<stop  offset="1" style="stop-color:#A4499A"/>
					</linearGradient>
					<polygon class="st6" points="297.4,311.5 282.8,313.5 245.9,121.3 260.5,119.3 					"/>
				</g>
			</g>
			<g>
				<g>
					<linearGradient id="SVGID_4_" gradientUnits="userSpaceOnUse" x1="260.7897" y1="80.0706" x2="328.9854" y2="219.6338">
						<stop  offset="3.721428e-03" style="stop-color:#4376BA"/>
						<stop  offset="0.1408" style="stop-color:#5E6EB4"/>
						<stop  offset="0.4226" style="stop-color:#8F5EA9"/>
						<stop  offset="0.67" style="stop-color:#B353A1"/>
						<stop  offset="0.8708" style="stop-color:#C94C9C"/>
						<stop  offset="1" style="stop-color:#D14A9A"/>
					</linearGradient>
					<polygon class="st7" points="260.5,119.3 435.3,280.8 297.4,311.5 					"/>
				</g>
			</g>
		</g>
	</g>
	
		<image style="overflow:visible;" width="495" height="602" xlink:href="12F36600.png"  transform="matrix(0.4945 0 0 0.4945 227.6102 101.1542)">
	</image>
	<g>
		<path class="st8" d="M439.4,381.2l-0.2-0.2L351.4,300l-53.9,12l-15.1,2.1l-0.1-0.5l-18-93.5l0,0l-19.1-99.1l15.3-2.1l0.2,0.2
			l88.9,82.1l67.9-15.1l18.1,94.3l0.1,0l0,0.5l18.9,98.4L439.4,381.2z M351.7,298.9l0.2,0.2l87.8,81.1l13.8-1.9l-18-93.4v0
			l-18.8-97.7l-67.4,15l-0.2-0.2l-88.9-82.1l-13.8,1.9l18.7,97.4l-0.1,0l0,0l0.1,0l0.1,0.3l0,0l18,93.5l14.1-1.9L351.7,298.9z"/>
	</g>
	<g>
		<rect x="363.8" y="293.3" transform="matrix(0.9783 -0.207 0.207 0.9783 -52.6435 84.389)" class="st8" width="26.3" height="1"/>
	</g>
	<g>
		
			<rect x="413.4" y="283.9" transform="matrix(0.9789 -0.2042 0.2042 0.9789 -49.2269 91.6437)" class="st8" width="12.1" height="1"/>
	</g>
	<g>
		
			<rect x="390.3" y="226.2" transform="matrix(0.6698 -0.7425 0.7425 0.6698 -48.7017 369.2156)" class="st8" width="1" height="26.3"/>
	</g>
	<g>
		
			<rect x="364.9" y="210.2" transform="matrix(0.6785 -0.7346 0.7346 0.6785 -41.5936 338.0626)" class="st8" width="1" height="12.6"/>
	</g>
	
		<image style="overflow:visible;" width="126" height="85" xlink:href="12F36601.png"  transform="matrix(0.4945 0 0 0.4945 345.7967 272.7472)">
	</image>
	
		<image style="overflow:visible;" width="98" height="79" xlink:href="12F36607.png"  transform="matrix(0.4945 0 0 0.4945 395.2471 264.8351)">
	</image>
	
		<image style="overflow:visible;" width="114" height="109" xlink:href="12F36602.png"  transform="matrix(0.4945 0 0 0.4945 362.6099 212.4177)">
	</image>
	
		<image style="overflow:visible;" width="93" height="91" xlink:href="12F36603.png"  transform="matrix(0.4945 0 0 0.4945 342.3352 194.121)">
	</image>
</g>
</svg>
