<?xml version="1.0" encoding="utf-8"?>
<!-- Generator: Adobe Illustrator 25.0.1, SVG Export Plug-In . SVG Version: 6.00 Build 0)  -->
<svg version="1.1" id="Layer_1" xmlns="http://www.w3.org/2000/svg" xmlns:xlink="http://www.w3.org/1999/xlink" x="0px" y="0px"
	 viewBox="0 0 88 88" style="enable-background:new 0 0 88 88;" xml:space="preserve">
<style type="text/css">
	.st0{fill:#F13742;}
	.st1{fill:none;stroke:#F9FCFD;stroke-width:2.6674;stroke-linecap:round;stroke-miterlimit:10;}
	.st2{fill:none;stroke:#D01D2B;stroke-width:2.6674;stroke-linecap:round;stroke-miterlimit:10;}
	.st3{fill:#7632C5;}
	.st4{fill:none;stroke:#FCF3FF;stroke-width:1.76;stroke-miterlimit:10;}
	.st5{fill:#B377FC;stroke:#FCF3FF;stroke-width:1.76;stroke-linecap:round;stroke-miterlimit:10;}
	.st6{fill:#7632C5;stroke:#FCF3FF;stroke-width:1.76;stroke-miterlimit:10;}
	.st7{fill:#B377FC;stroke:#FCF3FF;stroke-width:0.5867;stroke-miterlimit:10;}
	.st8{fill:#7632C5;stroke:#FCF3FF;stroke-width:1.1733;stroke-linecap:round;stroke-miterlimit:10;}
	.st9{fill:#365BF5;}
	.st10{fill:#41A9FA;stroke:#FCF3FF;stroke-width:1.76;stroke-linecap:round;stroke-miterlimit:10;}
	.st11{fill:none;stroke:#FCF3FF;stroke-width:1.76;stroke-linecap:round;stroke-miterlimit:10;}
	.st12{fill:#F9FCFD;stroke:#FCF3FF;stroke-width:0.5867;stroke-miterlimit:10;}
	.st13{fill:#41A9FA;}
	.st14{fill:#F9FCFD;}
	.st15{fill:#365BF5;stroke:#FCF3FF;stroke-width:1.1733;stroke-linecap:round;stroke-miterlimit:10;}
	.st16{fill:#FE7D48;}
	.st17{fill:none;stroke:#EAFCFF;stroke-width:1.5226;stroke-miterlimit:10;}
	.st18{fill:#365BF5;stroke:#FCF3FF;stroke-width:1.723;stroke-linecap:round;stroke-miterlimit:10;}
	.st19{fill:none;stroke:#FCF3FF;stroke-width:1.723;stroke-linecap:round;stroke-miterlimit:10;}
	.st20{fill:#FFFFFF;}
	.st21{fill:#463E53;}
</style>
<g>
	<path class="st13" d="M59.98,88H28.02C12.54,88,0,75.46,0,59.98V28.02C0,12.54,12.54,0,28.02,0h31.96C75.46,0,88,12.54,88,28.02
		v31.96C88,75.46,75.46,88,59.98,88z"/>
</g>
<g>
	<polyline class="st18" points="22.4,57.4 25.61,55.26 35.04,65.03 33.4,68.87 	"/>
	<path class="st19" d="M33.74,63.68l2.39-1.95h11.79c1.05,0,2.05-0.43,2.77-1.19c0,0,5.87-6.22,8.87-9.43
		c0.66-0.7,2.18-2.93,0.39-4.46c-1.37-1.17-2.92-0.55-4.12,0.58c-2.71,2.56-8.08,7.58-8.08,7.58c-0.78,0.7-1.79,1.1-2.84,1.1h-7.55"
		/>
	<path class="st19" d="M26.94,56.65l6.08-6h12.72c0,0,2.73,0.09,2.73,2.4c0,1.99-2.17,2.67-2.17,2.67"/>
	<g>
		<g>
			<g>
				<circle class="st20" cx="34.81" cy="22.68" r="3.05"/>
			</g>
		</g>
		<g>
			<polygon class="st21" points="35.84,24.49 35.84,22.14 33.79,22.14 			"/>
			<g>
				<polygon class="st13" points="33.79,20.86 33.79,23.2 35.84,23.2 				"/>
			</g>
		</g>
	</g>
	<g>
		<g>
			<g>
				<circle class="st20" cx="44.98" cy="36.99" r="5.79"/>
			</g>
		</g>
		<g>
			<polygon class="st21" points="46.93,40.44 46.93,35.98 43.03,35.98 			"/>
			<g>
				<polygon class="st13" points="43.03,33.53 43.03,37.99 46.93,37.99 				"/>
			</g>
		</g>
	</g>
	<g>
		<g>
			<g>
				<circle class="st20" cx="55.55" cy="25.35" r="4.05"/>
			</g>
		</g>
		<g>
			<polygon class="st21" points="56.92,27.77 56.92,24.64 54.19,24.64 			"/>
			<g>
				<polygon class="st13" points="54.19,22.93 54.19,26.05 56.92,26.05 				"/>
			</g>
		</g>
	</g>
</g>
</svg>
