<?xml version="1.0" encoding="utf-8"?>
<!-- Generator: Adobe Illustrator 25.0.1, SVG Export Plug-In . SVG Version: 6.00 Build 0)  -->
<svg version="1.1" id="Layer_1" xmlns="http://www.w3.org/2000/svg" xmlns:xlink="http://www.w3.org/1999/xlink" x="0px" y="0px"
	 viewBox="0 0 88 88" style="enable-background:new 0 0 88 88;" xml:space="preserve">
<style type="text/css">
	.st0{fill:#F13742;}
	.st1{fill:none;stroke:#F9FCFD;stroke-width:2.6674;stroke-linecap:round;stroke-miterlimit:10;}
	.st2{fill:none;stroke:#D01D2B;stroke-width:2.6674;stroke-linecap:round;stroke-miterlimit:10;}
	.st3{fill:#7632C5;}
	.st4{fill:none;stroke:#FCF3FF;stroke-width:1.76;stroke-miterlimit:10;}
	.st5{fill:#B377FC;stroke:#FCF3FF;stroke-width:1.76;stroke-linecap:round;stroke-miterlimit:10;}
	.st6{fill:#7632C5;stroke:#FCF3FF;stroke-width:1.76;stroke-miterlimit:10;}
	.st7{fill:#B377FC;stroke:#FCF3FF;stroke-width:0.5867;stroke-miterlimit:10;}
	.st8{fill:#7632C5;stroke:#FCF3FF;stroke-width:1.1733;stroke-linecap:round;stroke-miterlimit:10;}
	.st9{fill:#365BF5;}
	.st10{fill:#41A9FA;stroke:#FCF3FF;stroke-width:1.76;stroke-linecap:round;stroke-miterlimit:10;}
	.st11{fill:none;stroke:#FCF3FF;stroke-width:1.76;stroke-linecap:round;stroke-miterlimit:10;}
	.st12{fill:#F9FCFD;stroke:#FCF3FF;stroke-width:0.5867;stroke-miterlimit:10;}
	.st13{fill:#41A9FA;}
	.st14{fill:#F9FCFD;}
	.st15{fill:#365BF5;stroke:#FCF3FF;stroke-width:1.1733;stroke-linecap:round;stroke-miterlimit:10;}
</style>
<g>
	<path class="st9" d="M59.98,88H28.02C12.54,88,0,75.46,0,59.98V28.02C0,12.54,12.54,0,28.02,0h31.96C75.46,0,88,12.54,88,28.02
		v31.96C88,75.46,75.46,88,59.98,88z"/>
</g>
<polyline class="st10" points="67.42,18.42 63.57,20.6 63.57,37.49 67.42,39.5 "/>
<path class="st4" d="M63.57,22.45c0,0-11.1,0-15.51,0c-3.12,0-5.77,3.68-8.79,7.87"/>
<path class="st4" d="M63.57,34.01c0,0-2.33,3.38-6.33,3.38s-7.43,0-7.43,0"/>
<polyline class="st10" points="17.82,59.67 21.77,57.64 31.41,67.62 29.73,71.54 "/>
<path class="st11" d="M30.08,66.24l2.45-2h12.04c1.07,0,2.09-0.44,2.83-1.21c0,0,5.99-6.36,9.06-9.63c0.67-0.72,2.22-3,0.4-4.56
	c-1.4-1.2-2.98-0.57-4.2,0.59c-2.77,2.62-8.26,7.75-8.26,7.75c-0.79,0.72-1.83,1.12-2.9,1.12h-7.71"/>
<path class="st11" d="M23.14,59.06l6.21-6.12h13c0,0,2.78,0.09,2.78,2.46c0,2.04-2.22,2.72-2.22,2.72"/>
<g>
	<g>
		<path class="st12" d="M43.29,29.42c-2.37-0.59-4.83-0.22-6.93,1.04c-2.09,1.26-3.58,3.26-4.17,5.63
			c-0.59,2.37-0.22,4.83,1.04,6.93c1.26,2.1,3.26,3.58,5.63,4.17c0.74,0.18,1.48,0.27,2.22,0.27c2.05,0,4.01-0.69,5.59-1.91
			c1.58-1.21,2.77-2.95,3.29-5.03C51.18,35.62,48.19,30.64,43.29,29.42z M49.29,40.35c-1.13,4.53-5.73,7.3-10.27,6.17
			c-2.19-0.55-4.04-1.92-5.21-3.85c-1.16-1.94-1.5-4.22-0.96-6.41c0.55-2.19,1.92-4.04,3.85-5.21c1.33-0.8,2.83-1.21,4.35-1.21
			c0.69,0,1.38,0.09,2.07,0.26c3.84,0.96,6.42,4.42,6.42,8.21C49.54,38.98,49.46,39.67,49.29,40.35z"/>
		<path class="st13" d="M43.13,30.09c-0.69-0.17-1.38-0.26-2.07-0.26c-1.52,0-3.02,0.41-4.35,1.21c-1.94,1.17-3.31,3.02-3.85,5.21
			c-0.55,2.19-0.21,4.47,0.96,6.41c1.17,1.94,3.02,3.31,5.21,3.85c4.53,1.13,9.14-1.64,10.27-6.17c0.17-0.68,0.25-1.37,0.25-2.05
			C49.54,34.51,46.97,31.05,43.13,30.09z M44.96,37.05c-0.12,0.86-0.6,1.27-1.23,1.42c0.87,0.45,1.31,1.15,0.89,2.35
			c-0.52,1.49-1.76,1.62-3.41,1.31l-0.4,1.6l-0.97-0.24l0.39-1.58c-0.25-0.06-0.5-0.12-0.77-0.2l-0.4,1.59l-0.96-0.24l0.4-1.61
			c-0.23-0.05-0.46-0.12-0.69-0.18l-1.26-0.31l0.48-1.11c0,0,0.67,0.18,0.7,0.18c0.28,0.06,0.4-0.11,0.45-0.23l1.09-4.35
			c0.01-0.21-0.06-0.47-0.45-0.56c0-0.02-0.7-0.18-0.7-0.18l0.25-1.03L39.71,34c0.2,0.05,0.4,0.1,0.62,0.15l0.39-1.59l0.97,0.24
			l-0.39,1.56c0.26,0.06,0.52,0.12,0.77,0.18l0.39-1.55l0.96,0.25l-0.39,1.58C44.25,35.25,45.14,35.88,44.96,37.05z"/>
	</g>
	<path class="st14" d="M44.96,37.05c0.18-1.17-0.72-1.8-1.94-2.22l0.39-1.58l-0.96-0.25l-0.39,1.55c-0.25-0.06-0.52-0.12-0.77-0.18
		l0.39-1.56l-0.97-0.24l-0.39,1.59c-0.21-0.05-0.42-0.09-0.62-0.15l-1.34-0.33l-0.25,1.03c0,0,0.7,0.16,0.7,0.18
		c0.39,0.09,0.46,0.36,0.45,0.56l-1.09,4.35c-0.05,0.12-0.17,0.29-0.45,0.23c-0.03,0-0.7-0.18-0.7-0.18l-0.48,1.11l1.26,0.31
		c0.23,0.06,0.46,0.12,0.69,0.18l-0.4,1.61l0.96,0.24l0.4-1.59c0.26,0.08,0.52,0.14,0.77,0.2l-0.39,1.58l0.97,0.24l0.4-1.6
		c1.65,0.31,2.89,0.18,3.41-1.31c0.42-1.2-0.02-1.89-0.89-2.35C44.36,38.32,44.84,37.91,44.96,37.05z M42.75,40.15
		c-0.29,1.2-2.32,0.55-2.97,0.39l0.53-2.13C40.96,38.57,43.07,38.89,42.75,40.15z M43.05,37.03c-0.27,1.1-1.95,0.54-2.5,0.4
		l0.48-1.93C41.58,35.64,43.34,35.89,43.05,37.03z"/>
	<path class="st13" d="M42.75,40.15c-0.29,1.2-2.32,0.55-2.97,0.39l0.53-2.13C40.96,38.57,43.07,38.89,42.75,40.15z"/>
	<path class="st13" d="M43.05,37.03c-0.27,1.1-1.95,0.54-2.5,0.4l0.48-1.93C41.58,35.64,43.34,35.89,43.05,37.03z"/>
</g>
<path class="st15" d="M50.18,25.36l-6.44,6.44c0,0-2.82,2.3-0.38,4.74c2.44,2.44,5.3-1.18,5.3-1.18l1.91-1.91
	c0,0,6.09,0.68,7.15-2.91"/>
</svg>
