<?xml version="1.0" encoding="utf-8"?>
<!-- Generator: Adobe Illustrator 25.0.1, SVG Export Plug-In . SVG Version: 6.00 Build 0)  -->
<svg version="1.1" id="Layer_1" xmlns="http://www.w3.org/2000/svg" xmlns:xlink="http://www.w3.org/1999/xlink" x="0px" y="0px"
	 viewBox="0 0 88 88" style="enable-background:new 0 0 88 88;" xml:space="preserve">
<style type="text/css">
	.st0{fill:#FE7D48;}
	.st1{fill:none;stroke:#EAFCFF;stroke-width:1.5226;stroke-miterlimit:10;}
</style>
<g>
	<path class="st0" d="M59.98,88H28.02C12.54,88,0,75.46,0,59.98V28.02C0,12.54,12.54,0,28.02,0h31.96C75.46,0,88,12.54,88,28.02
		v31.96C88,75.46,75.46,88,59.98,88z"/>
</g>
<path class="st1" d="M35.93,61.08l5.91,0.54c3.32,0.3,6.25-2.14,6.55-5.46l0,0l-6-0.55C39.09,55.32,36.18,57.78,35.93,61.08
	L35.93,61.08z"/>
<path class="st1" d="M39.14,52.79l5.91,0.54c3.32,0.3,6.25-2.14,6.55-5.46l0,0l-6-0.55C42.3,47.02,39.4,49.48,39.14,52.79
	L39.14,52.79z"/>
<path class="st1" d="M42.36,44.49l5.91,0.54c3.32,0.3,6.25-2.14,6.55-5.46l0,0l-6-0.55C45.52,38.73,42.61,41.19,42.36,44.49
	L42.36,44.49z"/>
<path class="st1" d="M45.58,36.2l5.91,0.54c3.32,0.3,6.25-2.14,6.55-5.46l0,0l-6-0.55C48.73,30.43,45.83,32.89,45.58,36.2
	L45.58,36.2z"/>
<path class="st1" d="M35.24,60.82l-4.73-3.59c-2.65-2.01-3.17-5.79-1.16-8.45l0,0l4.8,3.64C36.79,54.43,37.28,58.21,35.24,60.82
	L35.24,60.82z"/>
<path class="st1" d="M38.45,52.52l-4.73-3.59c-2.65-2.01-3.17-5.79-1.16-8.45l0,0l4.8,3.64C40.01,46.13,40.5,49.91,38.45,52.52
	L38.45,52.52z"/>
<path class="st1" d="M41.67,44.23l-4.73-3.59c-2.65-2.01-3.17-5.79-1.16-8.45l0,0l4.8,3.64C43.22,37.84,43.71,41.62,41.67,44.23
	L41.67,44.23z"/>
<path class="st1" d="M44.88,35.93l-4.73-3.59c-2.65-2.01-3.17-5.79-1.16-8.45l0,0l4.8,3.64C46.44,29.54,46.93,33.32,44.88,35.93
	L44.88,35.93z"/>
<line class="st1" x1="46.55" y1="32.48" x2="31.64" y2="70.95"/>
<path class="st1" d="M51.93,18.72c0,0-9.82,3.33-5.28,13.62C46.65,32.34,56.4,28.86,51.93,18.72z"/>
</svg>
