<?xml version="1.0" encoding="utf-8"?>
<!-- Generator: Adobe Illustrator 25.0.1, SVG Export Plug-In . SVG Version: 6.00 Build 0)  -->
<svg version="1.1" id="Layer_1" xmlns="http://www.w3.org/2000/svg" xmlns:xlink="http://www.w3.org/1999/xlink" x="0px" y="0px"
	 viewBox="0 0 170 170" style="enable-background:new 0 0 170 170;" xml:space="preserve">
<style type="text/css">
	.st0{fill:#DAE2E8;}
	.st1{fill:#FFFFFF;}
	.st2{fill:#F1F4F6;}
</style>
<g>
	<g>
		<g>
			<g>
				<polygon class="st0" points="105.1,72.4 105.2,94.7 84.9,106.1 84.9,83.7 				"/>
				<polygon class="st1" points="84.9,106.3 64.7,95 64.7,72.4 84.9,83.7 				"/>
				<polygon class="st2" points="84.9,83.7 64.7,72.4 85,61 105.1,72.4 				"/>
			</g>
			<g>
				<polygon class="st0" points="105.1,42.3 105.2,64.7 84.9,76 84.9,53.6 				"/>
				<polygon class="st1" points="84.9,76.2 64.7,64.9 64.7,42.3 84.9,53.6 				"/>
				<polygon class="st2" points="84.9,53.6 64.7,42.3 85,30.9 105.1,42.3 				"/>
			</g>
			<g>
				<polygon class="st0" points="105.1,12.2 105.2,34.6 84.9,45.9 84.9,23.5 				"/>
				<polygon class="st1" points="84.9,46.1 64.7,34.8 64.7,12.2 84.9,23.5 				"/>
				<polygon class="st2" points="84.9,23.5 64.7,12.2 85,0.8 105.1,12.2 				"/>
			</g>
		</g>
		<g>
			<g>
				<polygon class="st0" points="76.3,87.8 76.4,110.2 56.1,121.6 56.1,99.2 				"/>
				<polygon class="st1" points="56.1,121.8 36,110.4 36,87.8 56.1,99.2 				"/>
				<polygon class="st2" points="56.1,99.2 36,87.8 56.2,76.4 76.3,87.8 				"/>
			</g>
			<g>
				<polygon class="st0" points="76.3,57.7 76.4,80.1 56.1,91.5 56.1,69.1 				"/>
				<polygon class="st1" points="56.1,91.7 36,80.3 36,57.7 56.1,69.1 				"/>
				<polygon class="st2" points="56.1,69.1 36,57.7 56.2,46.3 76.3,57.7 				"/>
			</g>
			<g>
				<polygon class="st0" points="76.3,27.6 76.4,50 56.1,61.4 56.1,39 				"/>
				<polygon class="st1" points="56.1,61.6 36,50.2 36,27.6 56.1,39 				"/>
				<polygon class="st2" points="56.1,39 36,27.6 56.2,16.3 76.3,27.6 				"/>
			</g>
		</g>
		<g>
			<g>
				<polygon class="st0" points="47.6,103.5 47.7,125.9 27.4,137.3 27.4,114.9 				"/>
				<polygon class="st1" points="27.4,137.5 7.3,126.1 7.3,103.5 27.4,114.9 				"/>
				<polygon class="st2" points="27.4,114.9 7.3,103.5 27.5,92.2 47.6,103.5 				"/>
			</g>
			<g>
				<polygon class="st0" points="47.6,73.4 47.7,95.8 27.4,107.2 27.4,84.8 				"/>
				<polygon class="st1" points="27.4,107.4 7.3,96 7.3,73.4 27.4,84.8 				"/>
				<polygon class="st2" points="27.4,84.8 7.3,73.4 27.5,62.1 47.6,73.4 				"/>
			</g>
			<g>
				<polygon class="st0" points="47.6,43.3 47.7,65.7 27.4,77.1 27.4,54.7 				"/>
				<polygon class="st1" points="27.4,77.3 7.3,65.9 7.3,43.3 27.4,54.7 				"/>
				<polygon class="st2" points="27.4,54.7 7.3,43.3 27.5,32 47.6,43.3 				"/>
			</g>
		</g>
	</g>
	<g>
		<g>
			<polygon class="st0" points="133.2,88.7 133.3,111.1 113,122.4 113,100 			"/>
			<polygon class="st1" points="113,122.6 92.9,111.3 92.9,88.7 113,100 			"/>
			<polygon class="st2" points="113,100 92.9,88.7 113.1,77.3 133.2,88.7 			"/>
		</g>
		<g>
			<polygon class="st0" points="133.2,58.6 133.3,81 113,92.3 113,69.9 			"/>
			<polygon class="st1" points="113,92.6 92.9,81.2 92.9,58.6 113,69.9 			"/>
			<polygon class="st2" points="113,69.9 92.9,58.6 113.1,47.2 133.2,58.6 			"/>
		</g>
		<g>
			<polygon class="st0" points="133.2,28.5 133.3,50.9 113,62.3 113,39.9 			"/>
			<polygon class="st1" points="113,62.5 92.9,51.1 92.9,28.5 113,39.9 			"/>
			<polygon class="st2" points="113,39.9 92.9,28.5 113.1,17.1 133.2,28.5 			"/>
		</g>
	</g>
	<g>
		<g>
			<polygon class="st0" points="104.5,104.1 104.6,126.5 84.3,137.9 84.3,115.5 			"/>
			<polygon class="st1" points="84.3,138.1 64.1,126.7 64.1,104.1 84.3,115.5 			"/>
			<polygon class="st2" points="84.3,115.5 64.1,104.1 84.4,92.8 104.5,104.1 			"/>
		</g>
		<g>
			<polygon class="st0" points="104.5,74 104.6,96.4 84.3,107.8 84.3,85.4 			"/>
			<polygon class="st1" points="84.3,108 64.1,96.6 64.1,74 84.3,85.4 			"/>
			<polygon class="st2" points="84.3,85.4 64.1,74 84.4,62.7 104.5,74 			"/>
		</g>
		<g>
			<polygon class="st0" points="104.5,43.9 104.6,66.3 84.3,77.7 84.3,55.3 			"/>
			<polygon class="st1" points="84.3,77.9 64.1,66.5 64.1,43.9 84.3,55.3 			"/>
			<polygon class="st2" points="84.3,55.3 64.1,43.9 84.4,32.6 104.5,43.9 			"/>
		</g>
	</g>
	<g>
		<polygon class="st0" points="75.7,119.8 75.8,142.2 55.5,153.6 55.5,131.2 		"/>
		<polygon class="st1" points="55.5,153.8 35.4,142.4 35.4,119.8 55.5,131.2 		"/>
		<polygon class="st2" points="55.5,131.2 35.4,119.8 55.6,108.5 75.7,119.8 		"/>
	</g>
	<g>
		<polygon class="st0" points="75.7,89.7 75.8,112.1 55.5,123.5 55.5,101.1 		"/>
		<polygon class="st1" points="55.5,123.7 35.4,112.4 35.4,89.7 55.5,101.1 		"/>
		<polygon class="st2" points="55.5,101.1 35.4,89.7 55.6,78.4 75.7,89.7 		"/>
	</g>
	<g>
		<polygon class="st0" points="75.7,59.7 75.8,82 55.5,93.4 55.5,71 		"/>
		<polygon class="st1" points="55.5,93.6 35.4,82.3 35.4,59.7 55.5,71 		"/>
		<polygon class="st2" points="55.5,71 35.4,59.7 55.6,48.3 75.7,59.7 		"/>
	</g>
	<g>
		<g>
			<polygon class="st0" points="162.7,104.1 162.7,126.5 142.5,137.8 142.5,115.4 			"/>
			<polygon class="st1" points="142.5,138 122.3,126.7 122.3,104.1 142.5,115.4 			"/>
			<polygon class="st2" points="142.5,115.4 122.3,104.1 142.6,92.7 162.7,104.1 			"/>
		</g>
		<g>
			<polygon class="st0" points="162.7,74 162.7,96.4 142.5,107.7 142.5,85.3 			"/>
			<polygon class="st1" points="142.5,107.9 122.3,96.6 122.3,74 142.5,85.3 			"/>
			<polygon class="st2" points="142.5,85.3 122.3,74 142.6,62.6 162.7,74 			"/>
		</g>
		<g>
			<polygon class="st0" points="162.7,43.9 162.7,66.3 142.5,77.6 142.5,55.2 			"/>
			<polygon class="st1" points="142.5,77.8 122.3,66.5 122.3,43.9 142.5,55.2 			"/>
			<polygon class="st2" points="142.5,55.2 122.3,43.9 142.6,32.5 162.7,43.9 			"/>
		</g>
	</g>
	<g>
		<g>
			<polygon class="st0" points="133.9,119.5 134,141.9 113.7,153.3 113.7,130.9 			"/>
			<polygon class="st1" points="113.7,153.5 93.6,142.1 93.6,119.5 113.7,130.9 			"/>
			<polygon class="st2" points="113.7,130.9 93.6,119.5 113.8,108.1 133.9,119.5 			"/>
		</g>
		<g>
			<polygon class="st0" points="133.9,89.4 134,111.8 113.7,123.2 113.7,100.8 			"/>
			<polygon class="st1" points="113.7,123.4 93.6,112 93.6,89.4 113.7,100.8 			"/>
			<polygon class="st2" points="113.7,100.8 93.6,89.4 113.8,78.1 133.9,89.4 			"/>
		</g>
		<g>
			<polygon class="st0" points="133.9,59.3 134,81.7 113.7,93.1 113.7,70.7 			"/>
			<polygon class="st1" points="113.7,93.3 93.6,81.9 93.6,59.3 113.7,70.7 			"/>
			<polygon class="st2" points="113.7,70.7 93.6,59.3 113.8,48 133.9,59.3 			"/>
		</g>
	</g>
	<g>
		<g>
			<polygon class="st0" points="105.2,135.2 105.3,157.6 85,169 85,146.6 			"/>
			<polygon class="st1" points="85,169.2 64.8,157.8 64.8,135.2 85,146.6 			"/>
			<polygon class="st2" points="85,146.6 64.8,135.2 85.1,123.9 105.2,135.2 			"/>
		</g>
		<g>
			<polygon class="st0" points="105.2,105.1 105.3,127.5 85,138.9 85,116.5 			"/>
			<polygon class="st1" points="85,139.1 64.8,127.7 64.8,105.1 85,116.5 			"/>
			<polygon class="st2" points="85,116.5 64.8,105.1 85.1,93.8 105.2,105.1 			"/>
		</g>
		<g>
			<polygon class="st0" points="105.2,75 105.3,97.4 85,108.8 85,86.4 			"/>
			<polygon class="st1" points="85,109 64.8,97.6 64.8,75 85,86.4 			"/>
			<polygon class="st2" points="85,86.4 64.8,75 85.1,63.7 105.2,75 			"/>
		</g>
	</g>
</g>
</svg>
